<?xml version="1.0" encoding="utf-8"?>
<!-- Generator: Adobe Illustrator 14.0.0, SVG Export Plug-In . SVG Version: 6.00 Build 43363)  -->
<!DOCTYPE svg PUBLIC "-//W3C//DTD SVG 1.1//EN" "http://www.w3.org/Graphics/SVG/1.1/DTD/svg11.dtd">
<svg version="1.1" id="Layer_1" xmlns="http://www.w3.org/2000/svg" xmlns:xlink="http://www.w3.org/1999/xlink" x="0px" y="0px"
	 width="612px" height="792px" viewBox="0 0 612 792" enable-background="new 0 0 612 792" xml:space="preserve">
<g>
	<polygon fill-rule="evenodd" clip-rule="evenodd" fill="#FFFFFF" points="209,300 401.756,300 401.756,492.756 209,492.756 
		209,300 	"/>
	<path fill-rule="evenodd" clip-rule="evenodd" fill="#FFD200" d="M387.279,400.637c-6.663,0.369-12.584-6.292-12.584-6.292v-0.741
		c6.662-15.175,1.852-21.837,1.852-21.837c-13.694-6.662-9.623-15.915-9.623-15.915c4.812-9.253-8.884-11.474-8.884-11.474
		c1.217-6.814-0.287-14.109-1.459-18.306c-0.036-0.692-0.231-1.535-0.757-2.472c-0.228-0.679-0.736-1.222-0.919-1.307
		c-1.673-1.969-4.912-4.188-11.005-6.205c-9.188-4.075-19.466-5.615-27.504-6.123c-8.605-1.123-15.054-0.427-19.86,1.121
		c-0.137,0.04-0.261,0.083-0.382,0.126c-11.139,3.756-13.248,12.069-13.248,12.069c-2.961,15.915-11.843,11.103-11.843,11.103
		c-3.332-8.143-12.955-13.694-12.955-13.694c-1.851-4.072-9.623-8.883-9.623-8.883c-21.837-7.772-27.389,15.175-27.389,15.175
		c-8.883,8.883,1.48,27.759,1.48,27.759c-2.221,11.844,9.994,25.539,9.994,25.539c0,2.591,4.812,7.402,4.812,7.402
		c-0.37,3.331,7.402,13.324,7.402,13.324c8.883,5.922,4.071,12.215,4.071,12.215c-12.955,7.031-4.071,21.097-4.071,21.097
		c2.667,4.063,3.111,7.386,2.545,9.999c-13.509,11.611-9.63,20.857-9.596,20.938c1.491,10.729,17.414,10.516,17.414,10.516h79.946
		c43.673,21.098,42.563-8.513,42.563-8.513c0.369-4.811-8.884-9.623-8.884-9.623c0.74-2.221-0.74-9.253-0.74-9.253
		c-3.701-6.292-3.33-11.474-3.33-11.474c4.071-1.852,9.992-9.253,9.992-9.253c14.435,0.74,17.025-8.513,17.025-8.513
		C396.902,406.558,387.279,400.637,387.279,400.637L387.279,400.637z"/>
	<path fill-rule="evenodd" clip-rule="evenodd" fill="#EE3224" d="M227.559,326.796c0,0-1.146,7.645-2.803,9.302
		c0,0-1.147,7.9,2.676,12.742c0,0,1.147,5.989,2.549,6.626c0,0,0.382,11.724,7.008,17.585c0,0,1.402,5.734,6.499,9.939
		c0,0,2.549,6.754,2.549,7.646c0,0,2.293,4.714,4.078,5.606c0,0,1.019,3.949,3.95,4.969c0,0,5.989,7.902,7.518,14.527
		c0,0,3.822,4.461,5.224,6.117c0,0,5.989,13.125,6.753,15.8c0,0,4.843,12.233,5.352,12.488l1.657,3.058c0,0,1.656,1.02,1.656-2.039
		c0,0-1.657-7.008-2.167-8.027c0,0-2.294-11.085-2.676-11.34c0,0-2.42-9.429-3.313-10.831c0,0-1.274-7.135-1.912-8.155
		c0,0,0.229-5.229-1.415-6.246c0,0,0.522-4.458,0.395-5.223l0.382-3.569c0,0,0.765-5.989-2.166-11.086c0,0,0.509-4.333,1.274-4.842
		c0,0,1.911-15.164-3.058-16.82c0,0,3.313-12.361-4.587-17.84c0,0,0.893-9.556-1.146-11.467l-12.487-8.92c0,0-0.51-1.02-0.637-2.548
		c0,0-5.352-6.754-11.341-4.205c0,0-6.243,0.892-9.812,6.498V326.796L227.559,326.796z"/>
	<path fill-rule="evenodd" clip-rule="evenodd" fill="#CE7019" d="M294.32,319.93c0,0-4.9,1.633-6.942,16.333
		c0,0-2.041,20.554,2.586,27.36c0,0,8.167,4.492,21.371,5.581c0,0,28.352,1.882,31.326-0.08c0,0,5.426-5.092,6.787-19.657
		c0,0,1.497-12.522-1.771-22.051C347.678,327.416,336.38,317.615,294.32,319.93L294.32,319.93z"/>
	<path fill-rule="evenodd" clip-rule="evenodd" d="M280.964,443.848c-0.011-0.087-2.78-11.58-2.78-11.58l-3.87-13.214
		c-0.599-2.362-1.496-6.132-1.496-6.772c-0.018-0.477-0.203-4.415-1.258-5.818c0.054-2.546,0.139-6.312,0.162-6.558
		c0.231-0.644,0.329-1.624,0.329-2.761c0-3.462-0.909-8.37-1.737-9.611c-0.035-0.05-0.463-0.689-0.463-1.876
		c0-0.89,0.241-2.088,1.068-3.578l0.036-0.065l0.011-0.073c0.037-0.25,0.433-3.005,0.433-6.283c0-4.075-0.615-8.953-3.288-10.84
		c0.152-2.051,0.476-4.743,0.756-6.729c-0.477-7.117-4.69-10.704-5.367-11.236c0.072-1.278,0.105-2.423,0.105-3.439
		c0-6.913-1.474-8.119-2.066-8.329c-1.979-1.921-10.32-7.583-11.971-8.698c-0.19-0.648-0.309-1.314-0.266-1.918l0.012-0.159
		l-0.1-0.125c-0.236-0.297-5.844-7.197-11.83-4.426c-0.428,0.07-8.057,1.398-10.284,7.137l-0.021,0.054l-0.005,0.059
		c-0.005,0.058-0.521,5.806-2.615,8.786l-0.056,0.08l-0.014,0.097c-0.022,0.155-0.192,1.411-0.192,3.154
		c0,2.954,0.5,7.3,3.037,10.063l-0.071,0.013c0.094,0.537,0.94,5.098,2.432,6.468c0.021,1.272,0.41,11.607,6.816,17.465
		c0.405,1.348,2.241,6.747,6.383,9.758l-0.049,0.028c0.021,0.037,2.079,3.769,2.813,7.275c0.046,0.18,1.066,3.924,4.295,6.418
		c0.098,0.682,0.671,3.121,3.806,4.807c0.244,0.294,5.456,6.638,6.171,11.011c0.075,0.241,1.228,3.717,3.257,5.437l0.234,0.41
		c1.933,2.198,3.187,4.193,3.199,4.213c0.719,1.774,5.083,10.99,5.269,11.381c0.901,2.376,5.479,14.4,5.823,14.915
		c1.014,1.837,2.129,3.94,2.209,4.229l0.031,0.113l0.091,0.099c0.103,0.094,1.024,0.907,1.836,0.549
		c0.581-0.256,0.864-0.974,0.864-2.193C282.002,448.741,280.989,444.235,280.964,443.848L280.964,443.848L280.964,443.848z
		 M281.453,453.029c-0.228,0.101-0.664-0.168-0.896-0.361c-0.29-0.741-1.636-3.202-2.246-4.306
		c-0.301-0.519-3.614-9.139-5.77-14.812c-0.058-0.125-4.552-9.615-5.294-11.432c-0.071-0.123-0.994-1.589-2.46-3.37
		c0.247,0.052,0.498,0.083,0.76,0.069l-0.042-0.815c-0.644,0.033-1.236-0.234-1.774-0.658l-0.033-0.061l-0.026,0.015
		c-1.872-1.524-3.033-5.015-3.048-5.061c-0.75-4.614-6.144-11.114-6.373-11.389l-0.053-0.062l-0.071-0.039
		c-3.261-1.707-3.47-4.258-3.477-4.366l-0.013-0.188l-0.151-0.114c-3.115-2.316-4.121-6.036-4.131-6.073
		c-0.508-2.431-1.603-4.906-2.291-6.314c0.556,0.301,1.145,0.559,1.771,0.76l0.25-0.777c-4.857-1.559-7.445-6.897-8.456-9.542
		c0.42,0.31,0.858,0.606,1.324,0.878l0.411-0.706c-0.815-0.474-1.554-1.019-2.228-1.614c-0.01-0.037-0.018-0.064-0.019-0.068
		l-0.046,0.013c-6.634-5.941-6.659-16.999-6.658-17.121l0.001-0.21l-0.17-0.124c-0.922-0.666-1.687-3.371-2.072-5.12
		c0.52,0.408,1.099,0.762,1.758,1.04l0.318-0.753c-4.486-1.891-5.211-7.75-5.211-11.343c0-1.562,0.132-2.653,0.157-2.847
		c2.1-3.085,2.642-8.455,2.691-9c2.091-5.308,9.583-6.585,9.659-6.598l0.058-0.009l0.053-0.025
		c5.146-2.461,10.258,3.376,10.831,4.058c-0.001,0.047-0.005,0.093-0.005,0.14c0,0.696,0.156,1.43,0.378,2.126l-0.02,0.028
		c0.003,0.002,0.017,0.011,0.035,0.024c0.546,1.685,1.472,3.13,1.529,3.218l0.685-0.444c-0.01-0.016-0.55-0.861-1.035-1.975
		c2.768,1.885,9.431,6.475,10.985,8.028l0.068,0.068l0.128,0.041c0.024,0.008,2.449,0.978,1.198,14.345l0.813,0.076
		c0.079-0.839,0.141-1.626,0.192-2.376c1.214,1.133,4.232,4.493,4.62,10.177c-0.118,0.775-1.172,8.359-0.74,9.829l0.783-0.23
		c-0.085-0.292-0.093-0.964-0.05-1.844c2.034,1.889,2.524,6.145,2.524,9.795c0,3.165-0.363,5.844-0.407,6.155
		c-0.862,1.58-1.129,2.889-1.129,3.89c0,1.476,0.566,2.289,0.606,2.345c0.721,1.083,1.586,5.867,1.586,9.174
		c0,1.054-0.088,1.958-0.296,2.544c-0.028,0.08-0.051,0.145-0.192,6.846l-0.003,0.166l0.112,0.12
		c0.81,0.872,1.105,4.229,1.151,5.448c0,0.933,1.368,6.356,1.524,6.972l3.866,13.199c0,0.002,2.707,11.239,2.764,11.475
		c0.092,0.786,1.3,6.072,1.682,7.732C281.828,452.771,281.541,452.99,281.453,453.029L281.453,453.029z"/>
	<path fill-rule="evenodd" clip-rule="evenodd" d="M264.521,411.933c0.02,0.017,1.969,1.724,1.969,4.81h0.817
		c0-3.479-2.165-5.354-2.257-5.432L264.521,411.933L264.521,411.933z"/>
	<path fill-rule="evenodd" clip-rule="evenodd" d="M247.813,387.077c0.035,0.02,3.459,2.04,3.762,7.987l0.815-0.042
		c-0.328-6.424-4.02-8.569-4.177-8.657L247.813,387.077L247.813,387.077z"/>
	<path fill-rule="evenodd" clip-rule="evenodd" d="M266.128,387.229c0.023,0.03,2.302,3.068,1.134,10.503
		c-0.239,2.866-0.719,9.553-0.115,10.358c-0.006-0.005,2.294,4.121,2.415,6.053l0.815-0.051c-0.132-2.116-2.449-6.271-2.548-6.446
		c-0.315-0.601-0.118-5.454,0.243-9.817c1.227-7.802-1.199-10.976-1.303-11.105L266.128,387.229L266.128,387.229z"/>
	<path fill-rule="evenodd" clip-rule="evenodd" d="M269.772,416.031c0.038,0.032,0.926,0.809,0.815,2.477l0.815,0.055
		c0.141-2.105-1.057-3.117-1.108-3.159L269.772,416.031L269.772,416.031z"/>
	<path fill-rule="evenodd" clip-rule="evenodd" d="M261.865,375.625c-0.471,0.497-0.664,0.988-0.571,1.458
		c0.129,0.656,0.756,0.956,0.827,0.988l0.339-0.743c-0.003-0.001-0.318-0.157-0.365-0.405c-0.004-0.022-0.006-0.045-0.006-0.068
		c0-0.159,0.102-0.323,0.217-0.475c0.128,0.059,0.294,0.166,0.469,0.412c0.265,0.373,0.512,1.028,0.512,2.178
		c0,0.682-0.087,1.539-0.31,2.615l0.8,0.165c0.536-2.591,0.41-4.434-0.372-5.48c-0.522-0.696-1.142-0.765-1.211-0.771L262,375.484
		L261.865,375.625L261.865,375.625z"/>
	<path fill-rule="evenodd" clip-rule="evenodd" d="M263.046,371.408c0.027,0.038,2.713,3.851,2.039,9.12l0.81,0.104
		c0.717-5.601-2.067-9.536-2.186-9.701L263.046,371.408L263.046,371.408z"/>
	<path fill-rule="evenodd" clip-rule="evenodd" d="M257.465,359.996c0.008,0.12,0.227,2.919,2.218,5.284
		c0.053,0.143,0.716,1.98,0.716,4.178c0,0.889-0.11,1.831-0.417,2.732c-0.042,0.232-0.444,2.699-0.444,5.377
		c0,2.704,0.41,5.623,2.014,6.681l0.45-0.682c-2.285-1.507-1.663-8.58-1.23-11.178c1.17-3.428-0.279-7.284-0.342-7.446l-0.025-0.066
		l-0.046-0.054c-1.866-2.168-2.077-4.856-2.078-4.883L257.465,359.996L257.465,359.996z"/>
	<path fill-rule="evenodd" clip-rule="evenodd" d="M243.642,367.007c0.045,0.295,1.158,7.252,4.669,9.438l0.432-0.693
		c-3.193-1.988-4.283-8.801-4.293-8.87L243.642,367.007L243.642,367.007z"/>
	<path fill-rule="evenodd" clip-rule="evenodd" d="M262.306,356.273c0.017,0.019,1.653,1.891,1.181,4.782l0.806,0.132
		c0.537-3.293-1.302-5.374-1.38-5.46L262.306,356.273L262.306,356.273z"/>
	<path fill-rule="evenodd" clip-rule="evenodd" d="M254.744,341.821c0.025,0.06,2.517,6.032,2.21,9.6l-0.017,0.194l0.141,0.136
		c0.027,0.025,2.681,2.62,3.853,7.859l0.796-0.178c-1.1-4.922-3.396-7.555-3.952-8.136c0.01-0.171,0.021-0.341,0.021-0.52
		c0-3.764-2.201-9.036-2.3-9.272L254.744,341.821L254.744,341.821z"/>
	<path fill-rule="evenodd" clip-rule="evenodd" d="M230.602,352.354c0.232,0.116,0.901,0.549,0.936,1.009
		c0.026,0.349-0.341,0.685-0.655,0.906l0.471,0.667c0.708-0.5,1.044-1.05,0.999-1.638c-0.079-1.002-1.254-1.609-1.388-1.675
		L230.602,352.354L230.602,352.354z"/>
	<path fill-rule="evenodd" clip-rule="evenodd" d="M241.718,354.99c0.046,0.077,3.712,6.152,3.925,9.543
		c-0.018,0.111-0.438,4.33,1.427,6.428l0.61-0.543c-1.625-1.827-1.228-5.827-1.224-5.867c-0.223-3.66-3.875-9.713-4.031-9.969
		c-6.16-11.259-4.415-15.246-4.397-15.285l-0.732-0.361C237.211,339.107,235.287,343.236,241.718,354.99L241.718,354.99z"/>
	<path fill-rule="evenodd" clip-rule="evenodd" d="M250.52,331.52c0.066,0.202,0.182,0.799-0.064,1.138
		c-0.151,0.208-0.445,0.313-0.873,0.313v0.817c0.707,0,1.223-0.22,1.536-0.654c0.531-0.737,0.213-1.757,0.176-1.871L250.52,331.52
		L250.52,331.52z"/>
	<path fill-rule="evenodd" clip-rule="evenodd" d="M348.29,327.39l-0.044-0.142l-0.124-0.081
		c-17.252-11.258-52.802-7.683-53.16-7.646v0.002c-0.707-0.028-1.415,0.255-2.105,0.856c-3.073,2.674-5.613,11.295-6.318,21.451
		c-0.706,10.157,0.618,19.046,3.292,22.118c0.493,0.567,1.027,0.918,1.592,1.069l-0.068,0.176
		c19.543,7.583,51.27,4.755,51.588,4.726l0.195-0.018l0.108-0.164C355.401,351.286,348.362,327.627,348.29,327.39L348.29,327.39
		L348.29,327.39z M290.447,363.414c-2.502-2.875-3.774-11.727-3.093-21.526s3.165-18.39,6.04-20.892
		c0.544-0.473,1.077-0.696,1.583-0.66c0.506,0.035,1.003,0.329,1.477,0.873c2.501,2.875,3.773,11.727,3.093,21.526
		c-0.681,9.799-3.165,18.39-6.04,20.892c-0.544,0.474-1.077,0.696-1.583,0.66C291.417,364.252,290.92,363.958,290.447,363.414
		L290.447,363.414L290.447,363.414z M342.661,369.124c-2.319,0.197-30.948,2.444-49.687-4.208c0.359-0.143,0.715-0.368,1.067-0.673
		c3.073-2.675,5.613-11.295,6.319-21.452c0.705-10.157-0.617-19.046-3.292-22.119c-0.154-0.178-0.313-0.335-0.475-0.472
		c6.989-0.541,35.956-2.103,50.958,7.583c0.231,0.801,2.018,7.276,2.018,15.86C349.569,351.391,348.09,360.792,342.661,369.124
		L342.661,369.124z"/>
	<path fill-rule="evenodd" clip-rule="evenodd" fill="#C5C19D" d="M315.01,364.644c0,0,3.063-2.348,4.594,0.612l-3.267,51.657
		c0,0-2.552,2.348-5.921-0.919L315.01,364.644L315.01,364.644z"/>
	<path fill-rule="evenodd" clip-rule="evenodd" d="M320.055,364.901c-0.03-0.052-0.765-1.295-2.164-1.581
		c-0.953-0.194-1.958,0.099-2.987,0.872l-0.146,0.108l-4.884,52.094l0.17,0.138c0.135,0.108,3.322,2.641,6.602,1.079l0.217-0.103
		l3.255-52.5L320.055,364.901L320.055,364.901L320.055,364.901z M311.146,416.292c1.017-0.278,2.908-0.521,4.676,0.744
		C313.914,417.685,312.055,416.835,311.146,416.292L311.146,416.292L311.146,416.292z M316.122,416.254
		c-2.071-1.381-4.249-1.033-5.348-0.706c0.479-5.119,4.725-50.398,4.761-50.785c0.778-0.546,1.515-0.778,2.186-0.643
		c0.89,0.178,1.42,0.885,1.564,1.1C319.269,365.477,316.501,410.123,316.122,416.254L316.122,416.254z"/>
	<path fill-rule="evenodd" clip-rule="evenodd" fill="#ABB5AB" d="M351.324,402.477c0,0,1.731-6.929,0.953-11.259
		c0,0,3.031-0.347,3.897-2.166c0,0,6.842,1.559,9.008-1.732c0,0-2.864-0.635-3.465-1.212c0,0,5.197-2.512,5.804-4.417
		c0,0-4.011,0.342-5.11-0.086c0,0,3.898-3.031,4.417-4.504c0,0-5.63,1.559-7.188,0.692c0,0-5.63-6.755-0.261-22.086
		c0,0-2.251,0.779-8.747,12.125c0,0,0.173-3.898,0.866-4.937c0,0-3.342,2.254-3.638,3.292c0,0,1.212-4.245,2.078-6.15
		c0,0-3.032,1.732-6.323,6.583c0,0-0.26-5.11-0.086-6.929c0,0-0.866,0.173-3.292,7.016c0,0-4.243-11.174-6.063-12.387
		c0,0-0.001,17.064-4.158,20.355c0,0-3.377,2.599-7.968-2.599c0,0-0.087,2.946,3.638,5.978c0,0-5.457-0.26-6.236-1.56
		c0,0,1.733,4.244,5.544,6.063c0,0-2.427,1.385-4.678,0.606c0,0,0.953,2.598,7.189,2.512c0,0-0.693,3.377,6.409,3.724
		c0,0-3.464,14.466-9.354,12.908l-2.772-2.166l-1.47,0.949c0,0,1.903,4.422,1.99,5.114c0,0,0.52-1.473,2.165-0.78
		c0,0,2.772,4.071-2.338,8.229c0,0,0.173,0.607,2.165,0.953c0,0-1.992,5.023-1.126,7.796c0,0-9.271-5.022-15.939-1.905
		c0,0-3.639,1.386-4.331,11.174c0,0-4.591-8.488-9.181-7.709c0,0-2.079,0.606-2.685,1.905c0,0-3.205-1.472-5.717,3.552
		c0,0,0,2.252,0.347,2.685c0,0-1.906,2.771,1.126,6.496c0,0,13.945,13.078,19.921,13.078c0,0,4.678-0.259,3.639-6.755
		c0,0,0.52-13.253,2.598-14.379c0,0,20.701,5.804,25.205,9.528c0,0,7.884,3.206,12.041,11.694c0,0,2.252,6.669-6.063,12.473
		c0,0-7.882,3.551-0.952,7.968c0,0,14.637,5.803,19.747,2.858l0.693-0.52c0,0,4.852,1.646,5.11-2.771c0,0,2.079-2.945-0.433-4.938
		c0,0-0.434-1.385-10.914-2.771c0,0,3.378-4.156,3.638-6.582c0,0,1.646-1.993-1.559-9.875c0,0-6.844-11.176-7.103-11.868
		c0,0,7.103-3.637,8.229-4.417c0,0,9.613-10.48,10.394-11.693c0,0,4.16-3.291,4.68-3.291c0,0,2.511,3.638,5.369,2.339
		c0,0,4.766-1.819,4.418-7.709c0,0-2.425-5.543-9.787-4.504c0,0-5.37,1.126-14.465,14.292c0,0-3.119,5.975-7.796,7.188
		c0,0,1.733-13.685-0.346-20.094C353.059,407.851,352.189,402.647,351.324,402.477L351.324,402.477z"/>
	<polygon fill-rule="evenodd" clip-rule="evenodd" fill="#FBD8E0" points="291.039,440.41 292.099,441.823 293.248,442.529 
		294.572,442.177 294.483,440.233 293.601,439.262 292.187,438.645 291.393,439.085 291.039,440.41 	"/>
	<path fill-rule="evenodd" clip-rule="evenodd" fill="#FBD8E0" d="M298.723,443.325c0,0,0.088,2.648,2.561,3.708
		c0,0,1.501,0.267,0.884-2.03c0,0-1.943-2.207-2.738-2.031C299.429,442.972,298.988,442.707,298.723,443.325L298.723,443.325z"/>
	<path fill-rule="evenodd" clip-rule="evenodd" fill="#FBD8E0" d="M295.102,437.407c0,0,1.855,2.473,3.268,1.413
		c0,0,1.236-1.591-0.883-3.092c0,0-2.031-1.323-2.473,0.619L295.102,437.407L295.102,437.407z"/>
	<path fill-rule="evenodd" clip-rule="evenodd" fill="#FBD8E0" d="M338.077,381.148c0,0,3.67-1.931,5.33-1.506
		c0,0,2.975,0,4.866,2.317c0,0-2.125,3.631-5.253,3.631C343.021,385.59,338.889,384.083,338.077,381.148L338.077,381.148z"/>
	<path fill-rule="evenodd" clip-rule="evenodd" fill="#FFECBB" d="M335.527,371.763c0,0,3.669,2.626,7.532,2.085
		c0,0,1.313,3.36-0.734,5.369l-0.27,0.193c0,0-2.124,0.309-4.172,1.931c0,0-4.287-0.231-4.751-3.901
		C333.133,377.44,331.974,372.96,335.527,371.763L335.527,371.763z"/>
	<path fill-rule="evenodd" clip-rule="evenodd" fill="#FFECBB" d="M346.072,373.964c0,0-2.279,2.665-0.464,5.484l3.052,2.395
		c0,0,3.591,0.58,5.909-2.317c0,0,1.429-2.51-0.116-5.252c0,0-0.424-1.893-3.746-0.927
		C350.707,373.346,348.659,375.162,346.072,373.964L346.072,373.964z"/>
	<path fill-rule="evenodd" clip-rule="evenodd" fill="#FFFFFF" d="M334.099,389.336c0,0,1.273,2.511,2.047,3.206
		c0,0,1.005-2.51,0.657-3.398C336.803,389.144,336.185,389.26,334.099,389.336L334.099,389.336z"/>
	<path fill-rule="evenodd" clip-rule="evenodd" fill="#FFFFFF" d="M349.355,390.766l0.038,2.742c0,0,1.699-0.966,2.279-2.24
		C351.673,391.268,350.128,390.843,349.355,390.766L349.355,390.766z"/>
	<path fill-rule="evenodd" clip-rule="evenodd" fill="#EE3224" d="M339.583,388.41c0,0-1.699,3.939-0.231,5.639
		c0,0,1.931,2.742,6.102,0.309c0,0,2.242-2.317,2.28-4.249c0,0-4.48-2.163-5.021-2.975L339.583,388.41L339.583,388.41z"/>
	<path fill-rule="evenodd" clip-rule="evenodd" fill="#FBD8E0" d="M331.79,407.86c0,0,3.608-7.289,5.773-8.518
		c0,0,3.825-2.741,6.424,0.145c0,0-1.949,4.329-5.27,6.279C338.718,405.767,334.172,408.221,331.79,407.86L331.79,407.86z"/>
	<path fill-rule="evenodd" clip-rule="evenodd" fill="#FBD8E0" d="M327.965,414.933c0,0,8.229,0.723,11.837-0.649
		c0,0,6.712-2.671,8.516-5.774c0,0,1.155,8.878,0.289,13.714c0,0-1.083,8.372-5.341,9.526c0,0-4.476,2.238-11.404-2.093
		C331.861,429.656,324.861,425.903,327.965,414.933L327.965,414.933z"/>
	<path fill-rule="evenodd" clip-rule="evenodd" fill="#FFFFFF" d="M320.318,401.09c0,0,1.43-1.226,2.246-2.145l-1.429-1.735
		c0,0,0.918-1.123,0.408-2.348c0,0,1.735-0.918,1.735-1.939c0,0-0.715-2.858-2.349-3.471c0,0,0.307-3.369-5.104-3.777
		c0,0-4.595-0.612-6.636,6.84c0,0-0.103,4.389,1.531,6.534c0,0-3.063,1.837-1.327,3.471c0,0-2.45,3.165-1.634,3.981l1.327,1.021
		c0,0-1.43,2.654-0.612,3.267c0,0,1.021,1.226,3.368,0c0,0,2.247-0.204,3.063,1.021c0,0,1.939,2.348,3.777,1.531
		c0,0,1.021,0.307,1.531,1.226c0,0,2.96-0.103,4.492-4.9c0,0,2.245-4.492-2.247-4.288L320.318,401.09L320.318,401.09z"/>
	<path fill-rule="evenodd" clip-rule="evenodd" fill="#0095D3" d="M263.77,448.803c0,0-2.448-0.74-3.301,0.057
		c0,0,0.285,4.325-0.341,4.723c0,0-1.024,1.991-3.813,0.569l-1.366-0.739c0,0-4.78,3.926-5.292,5.235c0,0-1.082,1.991,0.398,3.926
		c0,0-3.414,0.512-3.869,1.65l0.17,0.569c0,0-1.024,1.195-0.398,2.105c0,0,0.228,1.081,1.764,0.513c0,0,0.398,1.25,1.593,1.592
		c0,0,1.196,0.456,1.992-0.683l4.836-2.56c0,0,0.967-0.513,0.342-1.765l-1.593-1.081c0,0-1.024-1.536-0.398-2.618
		c0,0,1.479-2.731,7.625-4.382c0,0,6.316-2.163,8.82-0.797c0,0-0.739,3.414-1.366,3.927c0,0-0.513,1.537,0.228,1.878
		c0,0,9.276,1.422,11.098-2.731l-0.057-0.967c0,0,0.74-0.969,0.683-1.594c0,0-0.854-0.968-1.764-1.139h-0.512
		c0,0-0.625-1.194-2.048-0.854l-1.366,0.513l0.17-1.593c0,0,0.342-2.106-2.503-2.163c0,0-3.927,0.342-4.837,0.911l-2.674,1.365
		C265.99,452.672,263.655,449.998,263.77,448.803L263.77,448.803z"/>
	<path fill-rule="evenodd" clip-rule="evenodd" fill="#F26649" d="M275.873,457.298c0,0.333-0.336,0.603-0.75,0.603
		c-0.415,0-0.751-0.27-0.751-0.603c0-0.334,0.336-0.604,0.751-0.604C275.537,456.694,275.873,456.964,275.873,457.298
		L275.873,457.298z"/>
	<path fill-rule="evenodd" clip-rule="evenodd" fill="#F26649" d="M273.279,459.813c0,0.333-0.336,0.603-0.751,0.603
		s-0.751-0.27-0.751-0.603c0-0.334,0.336-0.604,0.751-0.604S273.279,459.479,273.279,459.813L273.279,459.813z"/>
	<path fill-rule="evenodd" clip-rule="evenodd" fill="#F26649" d="M277.17,459.425c0,0.334-0.336,0.604-0.751,0.604
		s-0.751-0.27-0.751-0.604c0-0.333,0.336-0.603,0.751-0.603S277.17,459.092,277.17,459.425L277.17,459.425z"/>
	<path fill-rule="evenodd" clip-rule="evenodd" fill="#0095D3" d="M273.558,441.519l-1.537-0.911
		c-0.342,0.968-2.618,1.479-2.618,1.479c-0.334,0.869-0.118,1.593,0.117,2.05h-6.263c-0.057,0.967-0.854,2.275-0.854,2.275
		l9.446-0.114c-0.683-1.024-0.398-2.161-0.398-2.161h-0.525l0.696-0.968c0.17,0.284,1.537,0,1.537,0
		C273.075,442.628,273.558,441.519,273.558,441.519L273.558,441.519z"/>
	<path fill-rule="evenodd" clip-rule="evenodd" fill="#0095D3" d="M267.469,439.129c0,0-1.878,5.064-4.495,4.098
		c0,0-2.846-0.058-4.667-4.098l-2.333-0.114c0,0-0.625-0.74,0.854-1.991c0,0-2.219-1.479-1.65-2.333c0,0,0.228-0.626,1.764-0.455
		c0,0-0.512-1.878-0.057-2.333c0,0-3.813,0.455-4.78-0.797c0,0-3.186-3.301-1.935-6.772c0,0,0.911-3.584,4.154-4.039
		c0,0,4.268-0.343,6.26,2.219c0,0,1.309,1.82,0.341,4.211c0,0,3.699-3.584,6.771-3.642c0,0,2.447-3.131,5.634-2.22
		c0,0,2.959-0.113,4.438,3.699c0,0,0.74,3.87-3.13,6.202c0,0-3.585,1.366-5.349,0.228c0,0,0.569,2.845,0.114,3.301
		c0,0,1.024,0.171,1.366,0.626c0,0,0,2.105-1.821,1.764c0,0,2.105,1.139,2.276,1.65
		C271.225,438.332,271.681,439.414,267.469,439.129L267.469,439.129z"/>
	<path fill-rule="evenodd" clip-rule="evenodd" fill="#F26649" d="M258.624,439.88c0,0,2.063,3.217,3.713,3.341
		c0,0,2.846,0.824,4.744-3.136l1.031,1.361c0,0,1.031-0.04,1.196,0.619c0,0-0.454,1.443-0.083,1.856l-4.909,0.083
		c0,0-0.949,0-0.949,0.247c0,0-0.99,2.021-0.825,2.186l5.157-0.082c0,0-0.124,2.062,0.784,2.723l2.269,1.526l-4.62,1.938
		l-1.609-1.567l-1.032-2.476l-0.577,0.042l-0.413-0.247l-1.939,0.329c0,0-0.082,3.713-0.124,3.878c0,0-0.454,2.186-1.732,2.104
		c0,0-2.517,0.125-4.827-2.186c0,0-0.371-1.196,0.331-1.774l3.3-3.96c0,0-0.742-1.732,0.413-2.516l0.454-0.248
		c0,0-1.32-2.476-0.949-2.929L258.624,439.88L258.624,439.88z"/>
	<path fill-rule="evenodd" clip-rule="evenodd" fill="#FFFFFF" d="M260.263,439.031c0,0,0.631,1.807,1.975,1.849
		c0,0,0.714-0.043,1.05-0.589c0,0,0.714,0.462,1.176,0.504c0,0,1.344-0.042,1.47-1.681L260.263,439.031L260.263,439.031z"/>
	<path fill-rule="evenodd" clip-rule="evenodd" fill="#FFFFFF" d="M259.817,435.403l1.222-0.341c0,0,1.243-0.9,2.064-0.9
		c0,0,1.824-0.021,2.565,0.681l0.921,0.741c0,0,2.926-0.28,3.046-2.324c0,0,0.04-2.545-1.623-3.166c0,0-1.984-0.381-3.647,1.223
		l-0.762,1.241l-0.942-1.462c0,0-1.083-1.643-4.028-0.922c0,0-1.804,0.86-1.864,2.344c0,0-0.12,2.245,1.583,2.866
		C258.354,435.384,259.256,435.725,259.817,435.403L259.817,435.403z"/>
	<path fill-rule="evenodd" clip-rule="evenodd" fill="#FFFFFF" d="M279.83,435.435c0,0-0.069-2.024-1.578-2.127
		c0,0-2.059,0.376-1.646,1.2c0,0,0.618,0.756,1.098,0.927c0,0-0.892,0.446-0.857,0.755c0,0-0.068,0.686,0.412,1.269
		c0,0-0.034,1.201,0.172,1.407l-1.956,0.994l-1.578-1.853c0,0,2.333,0.172,1.784-1.817c0,0-1.063-1.749-2.916-0.755
		c0,0-1.235,1.474-0.309,2.538l0.514,1.167l-0.995,1.028l1.647,1.51c0,0-0.549,1.166-0.412,1.578l-1.578,0.068
		c0,0-0.583,3.053,1.166,3.842l0.995,0.721l0.343-0.755c0,0,2.299,0.993,3.156-1.476c0,0,2.092-1.44,2.95-0.617
		c0,0,1.406,0.823,1.509-0.686l-0.549-1.201l0.206-0.892l-0.789-1.167l-0.275-0.822l0.377-0.652l-0.446-1.475l0.412-0.995
		L279.83,435.435L279.83,435.435z"/>
	<path fill-rule="evenodd" clip-rule="evenodd" fill="#ABB5AB" d="M261.25,435.564c0,0,0.285-1.765,2.163-1.424
		c0,0,1.708,0.229,2.503,0.911c0,0-0.569,1.935-2.503,1.65C263.413,436.702,261.25,436.986,261.25,435.564L261.25,435.564z"/>
	<path fill-rule="evenodd" clip-rule="evenodd" d="M262.936,452.069c0,0.177-0.196,0.32-0.437,0.32c-0.242,0-0.437-0.144-0.437-0.32
		c0-0.176,0.195-0.319,0.437-0.319C262.74,451.75,262.936,451.894,262.936,452.069L262.936,452.069z"/>
	<path fill-rule="evenodd" clip-rule="evenodd" d="M259.576,432.89c0,0.423-0.251,0.766-0.562,0.766s-0.562-0.343-0.562-0.766
		s0.251-0.766,0.562-0.766S259.576,432.467,259.576,432.89L259.576,432.89z"/>
	<path fill-rule="evenodd" clip-rule="evenodd" d="M267.947,432.992c0,0.31-0.274,0.562-0.612,0.562s-0.613-0.252-0.613-0.562
		c0-0.311,0.275-0.562,0.613-0.562S267.947,432.682,267.947,432.992L267.947,432.992z"/>
	<path fill-rule="evenodd" clip-rule="evenodd" d="M273.596,448.217l0.307,0.141c0,0,0.381-0.533,0.532-0.745
		c0.4,0.117,1.119,0.243,1.841-0.069c0.603-0.262,1.038-0.789,1.326-1.524c0.125-0.124,1.554-1.504,2.793-0.464l0.083,0.07
		l0.108,0.02c0.087,0.016,0.866,0.136,1.289-0.416c0.326-0.425,0.292-1.059-0.084-1.92l0.037-0.255
		c0.033-0.921-0.239-1.606-0.806-2.08c-0.006-0.005-0.014-0.01-0.02-0.015c0.059-0.318-0.027-0.601-0.145-0.791
		c0.324-0.436,0.224-1.08,0.079-1.454c-0.047-0.19-0.114-0.361-0.196-0.518c0.325-0.414,0.387-0.817,0.361-1.098
		c-0.057-0.615-0.478-1.12-0.803-1.427c0.027-1.023-0.245-1.787-0.816-2.263c-0.87-0.726-2.077-0.47-2.128-0.459l-0.057,0.013
		l-0.051,0.028c-0.796,0.437-1.184,0.926-1.15,1.455c0.03,0.484,0.409,0.835,0.743,1.055c-0.039,0.029-0.084,0.06-0.118,0.087
		c-0.44,0.464-0.487,0.87-0.455,1.135c0.052,0.428,0.322,0.737,0.513,0.906c-0.169,0.431-0.05,0.903,0.095,1.238
		c-0.406,0.098-0.829,0.266-1.264,0.538l-0.882-0.969c0.489-0.108,0.959-0.386,1.245-0.98c0.017-0.035,0.37-0.808,0-1.568
		c-0.273-0.563-0.847-0.95-1.706-1.15c-0.044-0.009-0.979-0.205-1.73,0.398c-0.573,0.46-0.863,1.232-0.863,2.297v0.085l0.033,0.078
		c0.019,0.042,0.306,0.694,0.754,1.35l-0.799,0.987l-0.189,0.233l0.167,0.249c0.004,0.007,0.033,0.047,0.074,0.102
		c-0.278,0.33-1.197,1.31-2.168,1.218c-0.33-0.478-0.692-0.701-1.081-0.634c-0.033,0.006-0.061,0.027-0.093,0.037l-0.773-1.162
		c0.118-0.207,0.213-0.383,0.284-0.515h2.265c0.386-0.041,1.505-0.22,1.594-0.946c0.065-0.53-0.437-1.028-1.661-1.608
		c0.115-0.053,0.232-0.102,0.332-0.176c0.731-0.546,0.75-1.453,0.75-1.519c0.014-0.061,0.035-0.123,0.035-0.183
		c0-0.16-0.048-0.312-0.145-0.442c-0.247-0.335-0.77-0.454-1.209-0.492c0.211-0.52,0.289-1.11,0.203-1.782
		c-0.004-0.03-0.045-0.304-0.164-0.666c4.725,1.424,7.08-2.374,7.101-2.416c1.001-1.237,1.438-2.582,1.266-3.954
		c-0.303-2.419-2.397-4.015-2.486-4.081l-0.04-0.029l-0.045-0.02c-4.959-2.112-7.533,0.73-8.159,1.567
		c-2.584,0.243-4.753,1.858-5.965,2.969c0.042-0.291,0.082-0.58,0.082-0.854c0-0.873-0.216-1.655-0.648-2.34
		c-1.34-2.122-4.25-2.473-4.374-2.487c-2.057-0.307-3.736,0.087-4.972,1.167c-2.194,1.917-2.172,5.283-2.17,5.426
		c0.306,2.43,1.203,4.109,2.67,5.036c1.528,0.967,3.268,0.856,4.229,0.687c-0.035,0.225-0.094,0.866,0.099,1.565
		c-0.586-0.063-1.288-0.044-1.605,0.331c-0.098,0.115-0.224,0.362-0.12,0.728c0.009,0.087,0.17,1.603,1.253,2.124
		c0.04,0.02,0.083,0.031,0.125,0.047c-0.38,0.344-0.696,0.738-0.779,1.157c-0.076,0.384,0.034,0.749,0.317,1.059l0.122,0.133h2.125
		c0.047,0.095,0.118,0.232,0.216,0.41c-0.516,0.345-1.342,1.014-1.128,1.661c0.013,0.04,0.037,0.073,0.056,0.109l-0.038,0.005
		c0.02,0.164,0.196,1.457,0.898,2.225c-0.355,0.264-0.529,0.479-0.551,0.508c-0.602,0.565-0.64,1.167-0.557,1.563
		c0.049,0.235,0.157,0.459,0.3,0.674c-1.843,1.818-4.613,4.876-3.611,5.951c0.032,0.036,0.323,0.36,0.799,0.764
		c-1.423,1.12-5.515,4.564-5.515,7.152c0,0.394,0.108,0.764,0.32,1.104c0.026,0.116,0.123,0.414,0.4,0.805
		c-1.068,0.086-2.919,0.371-3.472,1.328c-0.128,0.222-0.223,0.562-0.097,0.994c-0.452,0.507-0.627,1.194-0.504,2.059
		c0.052,0.165,0.328,0.837,1.002,1.111c0.336,0.136,0.7,0.142,1.085,0.026c0.147,0.351,0.395,0.721,0.753,1.108l0.051,0.055
		l0.067,0.033c0.788,0.395,2.434,0.77,3.266-0.429c0.98-0.385,4.823-1.979,5.441-3.44c0.081-0.101,0.155-0.261,0.155-0.471
		c0-0.055-0.005-0.112-0.016-0.173c-0.113-0.634-0.811-1.303-2.114-2.044c-0.07-0.076-0.429-0.498-0.429-1.158
		c0-0.074,0.004-0.149,0.014-0.229c0.12-0.928,0.979-1.901,2.487-2.813c3.065-1.412,11.27-4.587,13.332-2.829
		c-0.341,1.305-0.776,2.61-1.166,3.001l-0.042,0.042l-0.028,0.052c-0.027,0.05-0.653,1.228-0.112,2.135
		c0.356,0.597,1.094,0.9,2.194,0.9c0.854,0.01,8.331,0.012,9.647-2.896c0.141-0.157,0.577-0.708,0.299-1.196
		c-0.043-0.076-0.104-0.14-0.17-0.195c0.616-0.764,0.823-1.451,0.607-2.047c-0.411-1.132-2.139-1.349-2.334-1.37l-0.001,0.006
		c-0.201-0.199-0.394-0.326-0.438-0.354c-0.688-0.568-1.692-0.401-2.715,0.061c0.119-0.526,0.164-1.048,0.174-1.204
		c0.001-0.721-0.252-1.275-0.752-1.677c-1.227-0.987-3.635-0.682-4.494-0.533l-0.086-0.086l-0.127-0.021
		c-0.288-0.05-1.309-0.713-2.46-1.538l0.021-0.012c-0.374-0.649-0.449-1.314-0.459-1.69l3.732-0.078
		C272.194,447.342,272.76,447.832,273.596,448.217L273.596,448.217L273.596,448.217z M280.289,437.175
		c0.011,0.124-0.022,0.243-0.083,0.361c-0.62-0.536-1.449-0.716-1.948-0.716c-0.375,0.02-0.683,0.09-0.924,0.21
		c-0.101-0.087-0.239-0.24-0.258-0.407c-0.015-0.134,0.053-0.282,0.203-0.441c0.015-0.009,1.239-0.999,2.133-0.183
		C279.672,436.184,280.244,436.681,280.289,437.175L280.289,437.175L280.289,437.175z M280.241,439.601
		c-0.528-0.37-1.418-0.849-2.507-0.845c-0.15-0.255-0.296-0.648-0.194-0.852c0.077-0.152,0.339-0.247,0.739-0.269
		c0.042,0.002,1.556,0.027,1.88,1.325C280.216,439.117,280.29,439.42,280.241,439.601L280.241,439.601L280.241,439.601z
		 M276.911,434.387c0-0.132,0.192-0.369,0.684-0.648c0.179-0.028,0.88-0.109,1.368,0.301c0.26,0.219,0.417,0.56,0.484,1.005
		c-0.609-0.293-1.271-0.199-1.823,0.021l0.021-0.053c-0.291-0.117-0.72-0.404-0.733-0.616
		C276.911,434.394,276.911,434.39,276.911,434.387L276.911,434.387L276.911,434.387z M280.043,440.468
		c-1.216-0.366-2.611-0.082-2.687-0.065l0.17,0.799c0.02-0.004,2.008-0.41,2.973,0.399c0.248,0.208,0.398,0.488,0.468,0.836
		c-0.183-0.104-0.397-0.191-0.649-0.234c-0.805-0.139-1.69,0.196-2.63,0.993l0.528,0.623c0.732-0.62,1.408-0.901,1.954-0.813
		c0.563,0.091,0.84,0.539,0.852,0.558c0.3,0.65,0.307,1.036,0.208,1.168c-0.087,0.115-0.324,0.125-0.457,0.112
		c-1.448-1.06-3.09-0.081-3.776,0.625l-0.063,0.065l-0.029,0.086c-0.206,0.592-0.525,0.986-0.947,1.172
		c-0.704,0.31-1.506-0.03-1.515-0.034l-0.303-0.131c0,0-0.338,0.472-0.479,0.668c-1.454-0.805-1.803-1.992-1.803-2.854
		c0-0.311,0.037-0.563,0.077-0.752c0.562,0.062,1.218,0.03,1.312,0.021l0.392-0.037l-0.022-0.393
		c-0.087-1.523,1.935-2.835,1.956-2.848C277.727,438.715,279.566,440.055,280.043,440.468L280.043,440.468L280.043,440.468z
		 M272.506,440.188c0.139-0.172,0.334-0.412,0.477-0.589c0.123,0.13,0.249,0.251,0.382,0.354l0.635,0.745
		c-0.128,0.134-0.257,0.28-0.379,0.438C273.066,440.776,272.702,440.413,272.506,440.188L272.506,440.188L272.506,440.188z
		 M273.043,435.776c0.441-0.36,1.041-0.242,1.047-0.241c0.595,0.138,0.983,0.376,1.146,0.703c0.201,0.407-0.001,0.865-0.002,0.87
		c-0.439,0.914-1.681,0.471-1.733,0.452l-0.285,0.765c0.114,0.043,0.255,0.079,0.406,0.109l1.315,1.443
		c-0.085,0.062-0.202,0.153-0.337,0.265l-0.676-0.782c-0.754-0.586-1.313-1.761-1.422-1.999
		C272.513,436.606,272.689,436.064,273.043,435.776L273.043,435.776L273.043,435.776z M268.605,441.905
		c0,0.001,0.1,0.037,0.268,0.28c-0.102,0.316-0.251,0.938-0.096,1.536l-0.952-0.009
		C268.035,442.745,268.409,441.945,268.605,441.905L268.605,441.905L268.605,441.905z M267.739,441.658
		c-0.418,0.604-0.649,1.536-0.748,2.048l-1.077-0.01l-0.47-0.72c0.612-0.586,1.22-1.46,1.692-2.222L267.739,441.658L267.739,441.658
		L267.739,441.658z M264.184,442.839l-0.351,0.12c-0.644-0.109-1.231-0.164-1.766-0.176L262,442.715l-0.081-0.031
		c-1.476-0.566-2.612-2.36-3.088-3.223h1.157c0.15,0.437,0.604,1.431,1.722,1.804c0.035,0.016,0.63,0.253,1.24-0.095
		c0.156-0.089,0.291-0.215,0.414-0.36c0.454,0.247,1.268,0.578,1.966,0.247c0.514-0.242,0.818-0.789,0.928-1.596h0.693
		C266.122,440.929,264.875,442.708,264.184,442.839L264.184,442.839L264.184,442.839z M264.933,443.688l-0.561-0.005h0.001
		l0.063-0.07c0.115-0.026,0.234-0.077,0.355-0.143L264.933,443.688L264.933,443.688L264.933,443.688z M259.763,442.126
		c0.258,0.265,0.539,0.514,0.839,0.734c-0.826,0.114-1.473,0.332-1.961,0.572c-0.348-0.281-0.571-0.831-0.696-1.294
		c0.441,0.074,1.033,0.08,1.82,0.015L259.763,442.126L259.763,442.126L259.763,442.126z M260.873,439.461h2.216
		c-0.11,0.503-0.291,0.85-0.537,0.995c-0.264,0.155-0.545,0.048-0.558,0.043C261.383,440.295,261.046,439.811,260.873,439.461
		L260.873,439.461L260.873,439.461z M263.751,440.09c0.068-0.188,0.123-0.398,0.164-0.629h1.53
		c-0.061,0.364-0.191,0.728-0.464,0.857C264.633,440.483,264.096,440.274,263.751,440.09L263.751,440.09L263.751,440.09z
		 M269.19,423.521l1.393-0.578l-1.494-0.203c-0.165-0.022-0.328-0.034-0.49-0.045c0.911-0.933,3.036-2.359,6.719-0.81
		c0.228,0.182,1.881,1.558,2.122,3.5c0.019,0.155,0.029,0.311,0.029,0.466c0,0.983-0.387,1.962-1.153,2.914
		c-0.124,0.197-2.339,3.731-6.966,1.825c-0.083-0.116-0.175-0.226-0.278-0.331l0.147-0.05c0,0-0.213-0.642-0.362-1.085
		c0.542-0.082,1.55,0.005,2.421,0.194l1.194,0.259l-0.799-0.925c-0.905-1.048-2.142-1.408-3.271-1.499
		c1.584-0.4,3.179-0.562,3.205-0.563l0.886-0.087l-0.644-0.615c-1.542-1.473-4.361-1.001-6.248-0.449
		C266.827,424.598,268.441,423.832,269.19,423.521L269.19,423.521L269.19,423.521z M263.485,434.463c1.116,0,2.02,0.407,2.02,0.909
		c0,0.012-0.006,0.021-0.007,0.032c0.017,0.014,0.034,0.028,0.051,0.042c-0.024,0.029-0.054,0.062-0.081,0.093
		c-0.063,0.15-0.209,0.285-0.413,0.4c-0.369,0.299-0.863,0.556-1.44,0.479c-0.14,0.004-1.4,0.072-1.935-0.645
		c-0.134-0.121-0.215-0.256-0.215-0.401C261.465,434.87,262.37,434.463,263.485,434.463L263.485,434.463L263.485,434.463z
		 M260.973,434.861c-0.553,0.221-1.03,0.322-1.105,0.338c-1.02,0.021-1.763-0.229-2.21-0.747c-0.688-0.797-0.485-2.004-0.483-2.016
		c0.318-0.915,0.862-1.571,1.603-1.89c1.256-0.54,2.709,0.004,3.006,0.127c0.723,0.817,1.1,1.548,1.1,2.172
		c0,0.163-0.025,0.32-0.075,0.47c-0.07,0.209-0.188,0.396-0.333,0.565C261.81,434.108,261.273,434.561,260.973,434.861
		L260.973,434.861L260.973,434.861z M264.167,432.92c-0.001-0.016-0.002-0.033-0.002-0.05c0-0.96,0.635-1.479,0.663-1.502
		c1.301-0.916,2.399-1.233,3.158-0.905c1.027,0.444,1.25,1.942,1.252,1.958c0.02,0.156,0.029,0.307,0.029,0.45
		c0,0.574-0.157,1.057-0.471,1.438c-0.65,0.789-1.744,0.949-2.01,0.979c-0.166-0.084-0.336-0.196-0.507-0.319
		c-0.161-0.188-0.373-0.351-0.613-0.49C264.984,433.874,264.379,433.176,264.167,432.92L264.167,432.92L264.167,432.92z
		 M252.574,430.938c-1.248-0.792-2.017-2.272-2.287-4.399c0.002,0.015-0.012-3.093,1.897-4.758c1.048-0.915,2.503-1.24,4.325-0.969
		c0.041,0.006,2.665,0.327,3.792,2.117c0.641,1.019,0.688,2.341,0.139,3.933l0.698,0.396c0.031-0.035,2.617-3.027,5.93-3.632
		c-1.304,0.674-2.929,1.657-3.547,2.646l-0.707,1.131l1.219-0.541c0.045-0.021,3.934-1.709,6.282-0.922
		c-1.397,0.217-3.648,0.676-4.859,1.531l0.352,0.726c0.027-0.009,2.144-0.599,3.897,0.079c-0.609-0.039-1.224-0.016-1.581,0.188
		l-0.291,0.167l0.348,1.041c-1.028-0.375-2.316-0.029-3.838,1.042c-0.042,0.032-0.542,0.443-0.815,1.188
		c-0.208-0.582-0.602-1.195-1.18-1.836l-0.056-0.062l-0.076-0.035c-0.082-0.038-2.021-0.915-3.753-0.174
		c-0.72,0.309-1.292,0.847-1.707,1.602C256.295,431.521,254.238,431.993,252.574,430.938L252.574,430.938L252.574,430.938z
		 M256.201,438.645c-0.02-0.048-0.064-0.102-0.064-0.141c0-0.026,0.003-0.052,0.007-0.075c0.08-0.402,0.702-0.914,1.347-1.316
		c0.352-0.109,0.728-0.294,1.126-0.556l-0.447-0.683c-0.07,0.046-0.146,0.093-0.222,0.138l-0.031-0.065
		c-0.082,0.039-0.386,0.188-0.753,0.408c-0.288,0.077-0.57,0.091-0.81-0.024c-0.56-0.268-0.765-1.153-0.796-1.472l-0.003-0.036
		l-0.042-0.14c0.108-0.047,0.771-0.029,1.376,0.089c0.049,0.068,0.088,0.141,0.146,0.208c0.62,0.723,1.592,1.071,2.892,1.036
		l0.033-0.001l0.032-0.007c0.037-0.007,0.335-0.065,0.747-0.196c0.472,1.265,2.033,1.493,2.861,1.418
		c1.275,0.179,2.232-0.81,2.634-1.319c0.101,0.058,0.201,0.124,0.299,0.169l0.093,0.043l0.103-0.006
		c0.068-0.004,1.654-0.119,2.626-1.216c0.455-0.011,0.952,0.066,1.042,0.171l-0.014,0.052l-0.034,0.075
		c0,0.007-0.013,0.576-0.428,0.882c-0.366,0.269-0.983,0.285-1.783,0.048l-0.232,0.783c0.102,0.03,0.191,0.04,0.289,0.063
		l-0.011,0.029c2.528,0.936,2.736,1.395,2.751,1.443c-0.061,0.026-0.47,0.158-0.83,0.199
		C270.103,438.646,256.664,438.645,256.201,438.645L256.201,438.645L256.201,438.645z M257.748,441.237
		c0.048-0.067,0.405-0.39,0.798-0.662c0.164,0.253,0.351,0.524,0.566,0.801C257.964,441.42,257.757,441.245,257.748,441.237
		L257.748,441.237L257.748,441.237z M257.966,444.922c0.053-0.061,1.489-1.684,5.32-1.183c-0.581,0.782-1.479,2.212-1.479,3.605
		c0,0.24,0.099,0.467,0.159,0.701c-0.479,0.051-0.959,0.102-1.079,0.114c-1.203-0.452-3.094-1.467-3.286-2.385
		c-0.006-0.031-0.016-0.079-0.016-0.144C257.585,445.477,257.646,445.228,257.966,444.922L257.966,444.922L257.966,444.922z
		 M260.887,451.229l0.002-2.247c0.313-0.034,1.225-0.131,1.518-0.162c0.233,0.127,0.556,0.221,0.913,0.12
		c0.229,0.804,0.843,2.548,2.097,3.734c-0.848,0.454-1.542,0.843-1.854,1.02c-0.533,0.379-1.029,0.511-1.508,0.417
		c-0.586-0.114-1.053-0.539-1.326-0.849C260.905,452.738,260.991,452.076,260.887,451.229L260.887,451.229L260.887,451.229z
		 M263.121,448.154c-0.122,0.046-0.245,0.002-0.325-0.04c-0.11-0.249-0.175-0.511-0.175-0.785c0-0.104,0.024-0.213,0.037-0.319
		l1.104-0.022C263.526,447.921,263.22,448.117,263.121,448.154L263.121,448.154L263.121,448.154z M254.097,452.02
		c-0.234-0.388,1.235-2.493,3.549-4.786c0.736,0.675,1.765,1.19,2.428,1.479v2.567c0.115,0.944-0.038,1.597-0.266,2.05l-0.037,0.023
		c0.001,0.002,0.01,0.015,0.013,0.02c-0.35,0.657-0.854,0.873-0.89,0.887C256.44,454.635,254.12,452.045,254.097,452.02
		L254.097,452.02L254.097,452.02z M272.686,460.096c-0.261,0.111-0.483,0.099-0.604,0.05l-0.097-0.075l0.013-0.12
		c0.049-0.121,0.193-0.29,0.454-0.401c0.26-0.111,0.482-0.098,0.603-0.05l0.096,0.075l-0.012,0.121
		C273.093,459.811,272.946,459.985,272.686,460.096L272.686,460.096L272.686,460.096z M277.005,459.291
		c-0.046,0.116-0.193,0.291-0.454,0.401c-0.261,0.111-0.482,0.099-0.604,0.05l-0.096-0.075l0.012-0.12
		c0.049-0.122,0.193-0.291,0.454-0.401c0.26-0.111,0.482-0.098,0.603-0.05l0.096,0.075L277.005,459.291L277.005,459.291
		L277.005,459.291z M270.985,451.118l0.062-0.014c0.817-0.179,3.15-0.472,4.124,0.312c0.301,0.242,0.447,0.573,0.447,1.012
		c-0.038,0.552-0.194,1.493-0.418,1.772l0.021,0.016c-1.418,0.869-2.673,2.038-2.921,2.274l0.563,0.591
		c1.624-1.548,4.59-3.682,5.64-2.817c0.206,0.132,0.653,0.492,0.62,0.841c-0.018,0.181-0.209,0.658-1.621,1.198l0.292,0.763
		c1.374-0.525,2.075-1.143,2.143-1.888c0.009-0.102,0.001-0.197-0.012-0.29c0.435,0.127,0.927,0.353,1.056,0.71
		c0.13,0.358-0.134,0.904-0.728,1.541c-0.315,0.007-0.7,0.059-1.17,0.159l0.17,0.8c0.818-0.176,1.166-0.151,1.301-0.123
		c-0.033,0.076-0.094,0.177-0.167,0.257l-0.051,0.056l-0.028,0.072c-0.342,0.87-1.552,1.445-3.006,1.822
		c0.208-0.165,0.373-0.364,0.462-0.586l0.005-0.745l-0.542-0.512c-0.358-0.146-0.806-0.125-1.229,0.056
		c-0.422,0.18-0.747,0.488-0.892,0.848l-0.006,0.745c0.001,0.001,0.542,0.513,0.542,0.513c0.016,0.006,0.034,0.008,0.051,0.013
		c-0.888,0.142-1.781,0.227-2.573,0.273c0.364-0.186,0.646-0.464,0.776-0.786l0.005-0.746c-0.001,0-0.542-0.512-0.542-0.512
		c-0.358-0.145-0.806-0.125-1.229,0.056c-0.422,0.18-0.747,0.489-0.892,0.848c0,0-0.392,1.004,0.464,1.19c-0.116,0-0.234,0-0.335,0
		c-0.549,0-1.249-0.087-1.496-0.5c-0.246-0.409-0.008-1.063,0.117-1.307c0.944-1.072,1.692-4.869,1.775-5.308l-0.802-0.153
		c-0.062,0.327-0.142,0.702-0.233,1.098c-3.268-1.849-12.773,2.433-13.925,2.965c-1.802,1.087-2.77,2.24-2.917,3.448
		c-0.149,1.238,0.638,2.041,0.671,2.075l0.04,0.04l0.049,0.027c1.818,1.018,1.781,1.556,1.779,1.561l-0.033,0.051l-0.014,0.048
		c-0.241,0.843-3.142,2.307-5.125,3.076l-0.135,0.052l-0.072,0.126c-0.554,0.969-1.927,0.411-2.225,0.276
		c-0.32-0.356-0.654-0.813-0.654-1.205c0-0.072,0.011-0.143,0.036-0.209c0.222-0.588,1.42-0.845,1.822-0.889l-0.085-0.812
		c-0.21,0.021-2.062,0.249-2.5,1.412c-0.046,0.122-0.068,0.251-0.079,0.381c-0.233,0.085-0.447,0.11-0.623,0.04
		c-0.33-0.131-0.484-0.471-0.509-0.528c-0.015-0.122-0.026-0.24-0.026-0.35c0-0.443,0.123-0.793,0.367-1.043
		c0.665-0.679,2.033-0.521,2.047-0.52l0.1-0.811c-0.056-0.007-1.088-0.122-1.994,0.271c0.003-0.006,0.008-0.016,0.01-0.021
		c0.355-0.616,2.238-0.93,3.462-0.957l0-0.025c0.391,0.347,0.905,0.719,1.626,1.095l0.378-0.725
		c-2.076-1.082-2.319-2.134-2.321-2.145l-0.017-0.081l-0.049-0.076c-1.254-1.812,3.19-5.848,5.147-7.367
		c1.036,0.729,2.519,1.452,4.139,1.198c0.089-0.027,0.745-0.274,1.247-1.002c0.365,0.354,0.891,0.738,1.547,0.868
		c0.71,0.141,1.418-0.038,2.109-0.529c2.898-1.641,6.303-3.326,6.92-3.271L270.985,451.118L270.985,451.118L270.985,451.118z
		 M269.956,450.531c-1.017,0.352-2.475,1.062-3.766,1.735c-1.448-1.199-2.052-3.392-2.162-3.841
		c0.247-0.334,0.437-0.819,0.575-1.456l2.655-0.055c0.005,0.22,0.03,0.508,0.101,0.839c-0.16-0.12-0.32-0.241-0.476-0.361
		l-0.498,0.647C267.027,448.535,268.793,449.864,269.956,450.531L269.956,450.531L269.956,450.531z M262.852,446.189
		c0.229-0.637,0.583-1.237,0.9-1.694l7.304,0.063c0.011,0.443,0.089,0.946,0.296,1.455L262.852,446.189L262.852,446.189
		L262.852,446.189z M271.364,442.748l-0.127,0.37c-0.003,0.009-0.082,0.249-0.135,0.623l-1.45-0.013
		c-0.094-0.162-0.126-0.357-0.126-0.552c0-0.224,0.044-0.444,0.088-0.61c1.228,0.034,2.254-0.982,2.658-1.446
		c0.234,0.221,0.54,0.466,0.915,0.708c-0.174,0.336-0.312,0.695-0.354,1.083c-0.388,0.019-0.848,0.022-1.091-0.051L271.364,442.748
		L271.364,442.748z"/>
	<path fill-rule="evenodd" clip-rule="evenodd" d="M274.693,444.676l0.718,0.39c0.194-0.356,0.598-0.896,0.888-0.979l-0.225-0.785
		C275.358,443.507,274.799,444.482,274.693,444.676L274.693,444.676z"/>
	<path fill-rule="evenodd" clip-rule="evenodd" d="M273.783,443.439l0.775,0.259c0.107-0.317,0.343-0.7,0.509-0.742l-0.197-0.792
		C274.182,442.336,273.844,443.257,273.783,443.439L273.783,443.439z"/>
	<path fill-rule="evenodd" clip-rule="evenodd" d="M274.584,456.362c-0.501,0.305-0.794,0.773-0.794,1.201
		c0,0.156,0.039,0.307,0.121,0.442l0.566,0.397c0.362,0.088,0.812,0,1.203-0.238c0.391-0.237,0.677-0.596,0.766-0.958l-0.092-0.686
		l-0.566-0.398C275.426,456.035,274.977,456.123,274.584,456.362L274.584,456.362L274.584,456.362z M274.671,457.61l-0.062-0.029
		c-0.029-0.048,0.068-0.319,0.4-0.521c0.248-0.15,0.471-0.172,0.586-0.144c0.062,0.028,0.058,0.097,0.058,0.097
		c-0.028,0.114-0.149,0.303-0.396,0.453C275.008,457.617,274.786,457.638,274.671,457.61L274.671,457.61L274.671,457.61z
		 M273.955,458.078l-0.044-0.072L273.955,458.078L273.955,458.078z"/>
	<path fill-rule="evenodd" clip-rule="evenodd" d="M295.483,430.621c0.1,0.111,9.982,11.212,11.004,18.138l0.809-0.12
		c-1.059-7.168-10.791-18.101-11.204-18.563L295.483,430.621L295.483,430.621z"/>
	<path fill-rule="evenodd" clip-rule="evenodd" d="M295.07,435.116c-0.833,0.751-0.696,2.214,0.311,3.334
		c1.007,1.118,2.449,1.407,3.281,0.658c0.366-0.33,0.544-0.797,0.544-1.313c0-0.657-0.291-1.394-0.855-2.021
		c-0.568-0.631-1.33-1.029-2.038-1.067C295.826,434.683,295.396,434.824,295.07,435.116L295.07,435.116L295.07,435.116z
		 M295.989,437.903c-0.678-0.753-0.849-1.751-0.373-2.179c0.204-0.184,0.468-0.211,0.655-0.2c0.496,0.025,1.046,0.324,1.473,0.798
		l0,0c0.678,0.752,0.848,1.75,0.372,2.179S296.666,438.655,295.989,437.903L295.989,437.903L295.989,437.903z M298.352,435.775
		L298.352,435.775L298.352,435.775L298.352,435.775L298.352,435.775z"/>
	<path fill-rule="evenodd" clip-rule="evenodd" d="M291.066,438.688c-0.833,0.751-0.696,2.215,0.311,3.334
		c1.007,1.118,2.449,1.407,3.282,0.658c0.365-0.33,0.544-0.797,0.544-1.313c0-0.657-0.291-1.393-0.855-2.021
		c-0.568-0.631-1.33-1.029-2.038-1.067C291.822,438.254,291.392,438.396,291.066,438.688L291.066,438.688L291.066,438.688z
		 M291.985,441.475c-0.678-0.753-0.849-1.75-0.372-2.179c0.204-0.184,0.468-0.211,0.654-0.2c0.496,0.025,1.046,0.324,1.474,0.798
		l0,0c0.677,0.753,0.848,1.75,0.372,2.179C293.637,442.501,292.662,442.227,291.985,441.475L291.985,441.475L291.985,441.475z
		 M294.348,439.347L294.348,439.347L294.348,439.347L294.348,439.347L294.348,439.347z"/>
	<path fill-rule="evenodd" clip-rule="evenodd" d="M298.672,442.737c-0.726,0.592-0.482,2.012,0.569,3.303
		c0.675,0.829,1.532,1.39,2.236,1.461c0.347,0.035,0.652-0.046,0.884-0.235s0.374-0.472,0.409-0.818
		c0.006-0.058,0.009-0.116,0.009-0.177c0-0.682-0.366-1.547-0.986-2.308c-0.675-0.829-1.531-1.389-2.234-1.461
		C299.211,442.467,298.905,442.548,298.672,442.737L298.672,442.737L298.672,442.737z M301.56,446.688
		c-0.4-0.041-1.077-0.417-1.685-1.164c-0.811-0.996-0.948-1.941-0.686-2.153c0.076-0.063,0.197-0.065,0.286-0.057
		c0.4,0.041,1.076,0.417,1.684,1.164l0,0c0.609,0.747,0.84,1.485,0.799,1.886c-0.009,0.088-0.036,0.206-0.112,0.269
		C301.769,446.695,301.647,446.697,301.56,446.688L301.56,446.688L301.56,446.688z M301.792,443.963L301.792,443.963
		L301.792,443.963L301.792,443.963L301.792,443.963z"/>
	<path fill-rule="evenodd" clip-rule="evenodd" d="M385.614,410.437c-1.33-3.574-6.473-4.569-6.69-4.609
		c-8.216-1.254-17.978,14.357-18.389,15.022c-2.586,4.672-5.464,6.139-6.705,6.576c-0.053,0.313-0.108,0.614-0.166,0.91
		c1.088-0.279,4.527-1.564,7.575-7.074c0.088-0.141,9.876-15.8,17.549-14.63c0.034,0.007,4.896,0.95,6.062,4.092
		c0.169,0.456,0.253,0.938,0.253,1.444c0,1.594-0.832,3.439-2.488,5.51c-0.001-0.01-1.309,1.047-3.013,0.86
		c-1.161-0.127-2.256-0.798-3.262-1.986c0.486-0.172,0.962-0.272,1.4-0.252l0.039-0.815c-3.009-0.144-7.083,4.029-7.255,4.207
		c-2.712,3.788-9.862,11.087-9.934,11.16c-1.604,1.258-7.069,3.833-8.323,4.418c0.169,0.224,0.341,0.447,0.503,0.667
		c1.534-0.716,6.699-3.17,8.363-4.478c0.335-0.337,7.306-7.453,10.017-11.246c0,0.004,2.193-2.239,4.404-3.332
		c1.189,1.481,2.524,2.317,3.971,2.471c2.084,0.223,3.608-1.053,3.672-1.106C385.628,415.219,386.423,412.611,385.614,410.437
		L385.614,410.437z"/>
	<path fill-rule="evenodd" clip-rule="evenodd" d="M345.215,397.616l-0.791-0.2c-0.026,0.104-0.179,0.665-0.518,1.471
		c-0.651-0.555-1.853-1.298-3.49-1.116c-3.029,0.336-6.054,3.646-8.992,9.833c-1.042,0.062-2.16,0.043-3.368-0.083
		c0.721-1.657,2.896-6.439,5.193-9.286l-0.636-0.513c-2.499,3.098-4.778,8.232-5.4,9.688c-0.66-0.092-1.335-0.202-2.043-0.355
		l-0.173,0.797C341.525,411.434,345.181,397.755,345.215,397.616L345.215,397.616L345.215,397.616z M340.494,398.583
		c1.52-0.173,2.59,0.632,3.059,1.081c-1.345,2.746-4.507,7.096-11.178,7.856C335.773,400.541,338.657,398.792,340.494,398.583
		L340.494,398.583z"/>
	<path fill-rule="evenodd" clip-rule="evenodd" d="M351.904,434.79c0.237-0.606,1.082-2.905,1.76-6.454
		c0.058-0.296,0.113-0.598,0.166-0.91c0.429-2.489,0.756-5.513,0.756-8.949c0-4.847-0.656-10.492-2.609-16.568l-0.011,0.004
		c1.491-5.521,0.756-10.64,0.744-10.719l-0.808,0.123c0.018,0.119,1.72,11.957-5.495,18.729c-5.087,4.775-13.332,5.968-24.505,3.542
		l-0.174,0.798c0.676,0.146,1.34,0.278,1.995,0.398c-0.349,0.958-1.202,3.54-1.202,5.861c0,0.413,0.036,0.813,0.098,1.198
		c-2.825-1.393-12.727-5.667-17.781,0.152c-0.118,0.177-2.014,3.159-2.291,8.411c-2.854-4.557-5.309-6.176-7.039-6.652
		c-1.909-0.523-3.063,0.266-3.111,0.299c-0.639,0.344-1.122,0.822-1.467,1.399c-2.37-0.823-4.415,1.063-5.184,2.215
		c-1.142,1.239-0.998,2.865-0.396,4.39c-0.365,0.537-2.106,3.507,1.382,6.995c0.368,0.373,9.149,9.211,16.971,12.247
		c0.047,0.035,2.634,1.561,4.765,0.508c1.359-0.672,2.185-2.213,2.452-4.582c-0.002-0.203-0.002-0.409-0.002-0.616
		c0-6.409,0.666-14.997,2.217-15.477c1.426,0.35,16.841,4.218,24.974,9.494c0.15,0.067,7.92,3.233,11.659,11.053
		c0.038,0.091,0.378,0.932,0.378,2.263c0,2.511-1.21,6.765-7.941,11.009c-0.092,0.056-2.269,1.408-2.269,3.469
		c0,0.088,0.005,0.178,0.013,0.27c0.187,2.021,2.464,3.878,6.771,5.521c0.546,0.157,12.639,3.537,16.716,1.139l0.084-0.05
		l0.053-0.082c0.009-0.013,0.059-0.099,0.121-0.219c0.635,0.206,2.235,0.602,3.59-0.086c0.909-0.463,1.521-1.313,1.818-2.526
		c0.006-0.028,0.061-0.312,0.037-0.718c0.297-0.354,0.948-1.271,0.89-2.46c-0.05-0.997-0.583-1.92-1.586-2.742
		c-0.103-0.149-1.763-1.949-10.289-2.681c2.151-2.471,4.565-6.341,3.442-10.455c-0.031-0.595-0.541-6.288-8.825-17.394
		c-0.162-0.22-0.334-0.443-0.503-0.667C352.146,435.109,352.028,434.952,351.904,434.79L351.904,434.79L351.904,434.79z
		 M328.432,415.438c8.112,0.747,14.337-0.853,18.538-4.8c0.417-0.391,0.801-0.8,1.161-1.221c1.26,11.701-0.159,18.964-4.23,21.564
		c-4.172,2.668-9.838-0.704-9.894-0.738C324.959,426.469,328.058,416.532,328.432,415.438L328.432,415.438L328.432,415.438z
		 M360.782,453.445l0.014,0.049c1.122,3.995-1.564,7.886-3.688,10.205c-0.021-0.001-0.037-0.003-0.058-0.005l-0.006,0.074
		c-1.186,1.284-2.181,2.071-2.209,2.093l0.501,0.645c0.109-0.084,1.017-0.8,2.121-1.958c8.721,0.669,10.394,2.474,10.41,2.492
		c0.871,0.726,1.305,1.447,1.344,2.202c0.028,0.521-0.139,0.982-0.326,1.335c-0.101-0.244-0.23-0.496-0.42-0.747
		c-0.912-1.206-2.626-1.894-5.094-2.042l-0.05,0.814c2.178,0.131,3.728,0.722,4.481,1.707c0.695,0.909,0.511,1.854,0.502,1.894
		c-0.235,0.959-0.704,1.629-1.39,1.979c-1.056,0.538-2.377,0.224-2.926,0.051c0.152-0.565,0.209-1.301-0.168-2.004
		c-0.678-1.258-2.487-1.919-5.38-1.964l-0.013,0.816c2.534,0.04,4.149,0.568,4.67,1.53c0.139,0.256,0.189,0.525,0.189,0.785
		c0,0.579-0.246,1.09-0.352,1.285c-3.861,2.137-15.841-1.213-15.962-1.246c-4.932-1.883-6.104-3.661-6.213-4.818
		c-0.159-1.704,1.854-2.961,1.873-2.973c10.928-6.889,7.908-14.229,7.876-14.303c-3.888-8.13-11.698-11.306-12.029-11.438
		c-8.536-5.547-25.135-9.562-25.301-9.602l-0.092-0.021l-0.091,0.02c-2.794,0.607-2.921,13.075-2.893,16.882
		c-0.231,2.024-0.904,3.35-1.997,3.892c-1.729,0.856-4.024-0.492-4.047-0.505c-7.72-3.003-16.661-12.002-16.75-12.093
		c-2.506-2.506-1.985-4.597-1.548-5.511c0.989,1.925,2.481,3.505,2.599,3.626l0.59-0.564c-0.05-0.052-4.964-5.25-2.566-7.856
		c0.114-0.161,1.871-2.717,4.204-1.968c-0.032,0.099-0.078,0.188-0.103,0.293c-0.732,3.022,1.927,6.956,2.041,7.122l0.674-0.461
		c-0.025-0.038-2.568-3.802-1.92-6.471c0.208-0.855,0.712-1.49,1.544-1.94c0.075-0.048,0.964-0.63,2.507-0.191
		c2.172,0.618,5.611,3.249,9.666,12.273l0.745-0.335c-0.833-1.854-1.644-3.438-2.43-4.808h0.014c0-5.788,2.139-9.166,2.161-9.199
		c5.336-6.137,17.409,0.411,17.531,0.479l0.939,0.518l-0.356-1.011c-0.853-2.411,0.578-6.57,0.939-7.549
		c1.046,0.178,2.067,0.325,3.058,0.435c-0.551,1.801-3.132,11.792,6.036,15.612c0.194,0.123,6.097,3.643,10.7,0.702
		c4.406-2.813,5.941-10.473,4.563-22.768l-0.05-0.377c1.225-1.643,2.086-3.438,2.694-5.232c5.235,17.611-0.422,31.259-0.48,31.398
		l-0.094,0.22l0.146,0.19c9.37,12.129,9.662,18.231,9.663,18.292L360.782,453.445L360.782,453.445z"/>
	<path fill-rule="evenodd" clip-rule="evenodd" d="M354.599,373.316c-1.646-1.777-5.468,0.148-5.966,0.411
		c-2.383,0.474-3.382-1.121-3.423-1.189l-0.703,0.416c0.026,0.045,0.357,0.592,1.057,1.05c-0.521,0.607-2.056,2.767-0.493,5.443
		c-0.68-0.184-1.345-0.261-1.979-0.257c1.535-2.029,0.712-5.357,0.672-5.514l-0.095-0.37l-0.376,0.071
		c-3.461,0.648-7.458-1.977-7.498-2.003l-0.143-0.095l-0.167,0.035c-0.067,0.014-1.636,0.36-2.526,1.943
		c-0.801,1.423-0.785,3.342,0.046,5.703c0.042,0.116,1.022,2.663,4.81,2.678c1.308,3.382,4.965,4.204,5.125,4.238
		c3.062,0.115,5.166-2.739,5.696-3.542c1.048,0.386,2.718-0.121,3.119-0.254c2.096-0.809,3.391-2.004,3.868-3.559
		C356.408,375.966,354.673,373.423,354.599,373.316L354.599,373.316L354.599,373.316z M333.772,378.683
		c-0.392-1.113-0.587-2.108-0.587-2.977c0-0.783,0.159-1.464,0.478-2.037c0.584-1.047,1.521-1.411,1.844-1.511
		c0.758,0.476,4.21,2.473,7.533,2.057c0.068,0.36,0.163,0.971,0.163,1.693c0,1.146-0.244,2.502-1.234,3.284l0.061,0.078
		c-2.058,0.286-3.635,1.264-4.063,1.554C334.645,380.875,333.807,378.773,333.772,378.683L333.772,378.683L333.772,378.683z
		 M343.04,385.069c-0.001-0.007-3.27-0.78-4.434-3.691c1.078-0.702,5.337-3.028,9.265,0.62
		C347.313,382.806,345.483,385.156,343.04,385.069L343.04,385.069L343.04,385.069z M354.841,378.286
		c-0.4,1.301-1.532,2.319-3.362,3.025c-1.002,0.332-2.557,0.546-2.822,0.067l-0.14,0.079c-0.746-0.709-1.507-1.223-2.263-1.577
		l0.066-0.055c-2.469-2.983-0.132-5.312-0.031-5.41l-0.068-0.07c0.661,0.268,1.524,0.404,2.62,0.176l0.06-0.012l0.053-0.029
		c1.039-0.563,3.966-1.779,5.011-0.654c0,0.006,1.044,1.559,1.044,3.311C355.008,377.515,354.959,377.902,354.841,378.286
		L354.841,378.286z"/>
	<path fill-rule="evenodd" clip-rule="evenodd" d="M368.806,381.028l-0.619-0.532c-0.861,0.923-3.203,0.983-5.005,0.859
		c2.929-1.528,5.061-5.181,5.192-5.413c0,0,0.007-0.012,0.008-0.013l-0.703-0.415c-1.513,2.458-6.727,2.105-7.778,2.007
		c-1.932-2.742-2.588-6.105-2.588-9.369c0-6.384,2.45-12.362,2.488-12.453l0.434-1.039l-0.999,0.519
		c-2.37,1.231-6.592,8.314-8.278,11.269c0.169-1.057,0.683-2.555,1.156-3.63l0.337-0.763l-0.81,0.203
		c-0.962,0.241-2.31,1.601-3.205,2.61c0.461-1.623,1.627-3.914,2.17-4.882l0.421-0.751l-0.849,0.15
		c-1.723,0.304-4.968,4.532-6.267,6.31c-0.093-0.547-0.149-1.155-0.149-1.826c0-2.114,0.349-4.444,0.354-4.479l0.143-0.936
		l-0.778,0.539c-1.168,0.809-2.484,4.373-3.162,6.409c-1.324-4.195-5.465-11.01-5.662-11.333l-0.74-1.212l-0.017,1.42
		c-0.22,18.73-4.714,20.474-4.76,20.489c-3.26,1.365-6.747-3.029-6.782-3.074l-0.515-0.658l-0.203,0.811
		c-0.059,0.233-0.085,0.469-0.085,0.705c0,2.071,2.063,4.192,3.191,5.199c-2.275,0.137-4.863-1.538-4.893-1.557l-0.685-0.456
		l0.051,0.821c0.202,3.241,3.9,5.388,5.246,6.067c-0.781,0.433-2.821,0.374-4.201,0.156l-0.653-0.103l0.2,0.629
		c0.785,2.472,5.914,2.853,7.382,2.912c0.003,0.247,0.028,0.491,0.107,0.728c0.532,1.576,2.676,2.453,6.518,2.669l-0.013,0.004
		c0.087,0.262,0.887,2.573,2.128,3.317l0.378,0.228l0.197-0.395c0.038-0.076,0.879-1.804,0.74-3.354
		c0.469-0.114,1.022-0.252,1.604-0.41c-0.342,1.115-0.849,3.33-0.118,4.92c0.351,0.763,0.939,1.292,1.749,1.571
		c0.108,0.036,2.587,0.839,4.772-0.453c1.405-0.831,2.34-2.328,2.795-4.438c0.256,0.106,0.512,0.207,0.769,0.301l0.119,2.956
		l0.357,0.049c0.155,0.014,1.536,0.059,2.644-2.405c1.325-0.057,3.507-0.398,4.469-1.918c5.677,1.62,9.776-2.159,9.95-2.323
		l-0.5-0.641c-0.588,0.374-2.106-0.044-3.396-0.556C365.628,385,368.661,381.211,368.806,381.028L368.806,381.028L368.806,381.028z
		 M336.458,389.771c0,0.797-0.268,1.608-0.468,2.121c-0.571-0.594-1.059-1.616-1.303-2.239c0.466,0.014,0.947,0.021,1.458,0.018
		c0.078-0.017,0.184-0.041,0.301-0.067C336.449,389.66,336.458,389.714,336.458,389.771L336.458,389.771L336.458,389.771z
		 M344.846,394.337c-1.861,1.104-4.079,0.394-4.102,0.386c-0.594-0.205-1.011-0.577-1.269-1.137
		c-0.749-1.629,0.108-4.246,0.325-4.848c0.89-0.263,1.741-0.551,2.335-0.832l-0.094,3.292l0.817,0.023l0.093-3.292
		c0.847,0.531,2.507,1.52,4.334,2.346C346.895,392.238,346.076,393.607,344.846,394.337L344.846,394.337L344.846,394.337z
		 M349.719,392.974c-0.018-0.438-0.05-1.239-0.071-1.786c0.412,0.127,0.819,0.233,1.213,0.309c0.021,0.002,0.088,0.006,0.175,0.01
		C350.537,392.479,350.043,392.83,349.719,392.974L349.719,392.974L349.719,392.974z M361.117,385.529l-1.501,0.1l1.346,0.673
		c0.279,0.14,2.11,1.029,3.664,1.228c-1.519,0.96-4.398,2.255-7.884,1.307c0.398-1.374-0.118-3.188-1.563-5.417l-0.686,0.444
		c1.513,2.334,1.938,4.096,1.262,5.236c-1.09,1.839-4.751,1.592-4.788,1.589c-3.386-0.658-8.129-3.801-8.177-3.833l-0.277-0.185
		l-0.237,0.236c-0.496,0.496-3.938,1.442-6.224,1.955c-5.96,0.033-7.637-1.165-7.979-2.177c-0.616-1.825,2.48-4.65,3.726-5.585
		l-0.49-0.654c-0.166,0.125-3.378,2.564-4.016,4.958c-1.642-0.061-5.054-0.46-6.298-1.709c1.439,0.145,3.99,0.211,4.514-1.044
		l0.153-0.371l-0.368-0.161c-0.046-0.02-4.17-1.878-5.061-4.764c1.223,0.654,3.579,1.668,5.59,1.057l0.762-0.232l-0.633-0.483
		c-0.036-0.028-3.122-2.437-3.509-4.686c1.287,1.335,4.107,3.722,6.975,2.52c0.158-0.042,4.806-1.637,5.257-19.826
		c1.475,2.531,4.761,8.409,5.191,11.252l0.796,0.056c0.578-1.939,1.576-4.732,2.465-6.29c-0.091,0.864-0.181,1.991-0.181,3.101
		c0,1.141,0.096,2.249,0.385,2.991l0.275,0.711l0.438-0.625c1.362-1.941,3.637-4.801,5.186-6.066
		c-0.74,1.459-1.813,3.801-1.813,5.155c0,0.096,0.006,0.187,0.018,0.272l0.128,0.958l0.598-0.76
		c0.509-0.648,1.753-2.102,2.772-2.895c-0.387,1.012-0.86,2.444-0.86,3.49c0,0.284,0.054,0.519,0.136,0.724
		c-0.031,0.056-0.089,0.162-0.089,0.162l0.127,0.203c0.212,0.34,0.433,0.692,0.799,0.486c0.151-0.085,0.215-0.188,0.215-0.321
		c0-0.123-0.064-0.286-0.15-0.473c0.807-1.446,4.765-8.43,7.42-11.071c-0.757,2.172-2.067,6.608-2.067,11.334
		c0,3.467,0.706,7.079,2.86,10.045l0.104,0.144l0.177,0.021c0.206,0.026,3.89,0.454,6.562-0.639
		c-1.178,1.469-2.921,3.199-4.855,3.501l-0.004,0.806c0.43,0.072,3.323,0.517,5.514,0.033
		C365.422,383.44,363.158,385.393,361.117,385.529L361.117,385.529z"/>
	<polygon fill-rule="evenodd" clip-rule="evenodd" points="318.412,408.779 320.018,409.583 320.383,408.852 318.777,408.049 
		318.412,408.779 	"/>
	<polygon fill-rule="evenodd" clip-rule="evenodd" points="318.514,406.042 320.578,408.45 321.198,407.919 319.134,405.511 
		318.514,406.042 	"/>
	<polygon fill-rule="evenodd" clip-rule="evenodd" points="319.726,404.136 321.218,406.889 321.936,406.499 320.443,403.747 
		319.726,404.136 	"/>
	<path fill-rule="evenodd" clip-rule="evenodd" d="M333.327,389.514c0.218,3.818-4.801,10.56-4.852,10.627
		c-0.738,1.188-1.592,1.813-2.557,1.885c-1.515,0.112-3.002-1.11-3.712-1.798c0.479-0.5,0.804-0.976,0.828-1.013l0.178-0.267
		l-1.505-1.641c0.521-0.713,0.458-1.59,0.268-2.162c0.952-0.523,1.511-1.178,1.647-1.962c0.319-1.838-1.804-3.637-2.271-4.007
		c0.025-0.189,0.033-0.379,0.004-0.568c-0.275-1.824-3.058-2.814-3.175-2.855c-5.842-1.902-8.36,3.455-8.386,3.509
		c-2.14,4.955-0.251,8.728,0.452,9.869c-0.45,0.308-0.906,0.643-1.373,1.028c-0.432,0.484-0.842,1.563,0.171,2.6
		c-0.552,0.494-1.093,1.112-1.606,1.879c-0.02,0.027-0.438,0.671-0.224,1.517c0.163,0.641,0.653,1.203,1.424,1.686
		c-0.227,0.36-0.429,0.76-0.597,1.208c-0.014,0.03-0.453,1.101,0.144,1.916c0.464,0.632,1.383,0.89,2.729,0.766l0.072-0.007
		l0.066-0.031c0.027-0.013,2.744-1.287,3.46,0.196c0.117,0.173,2.014,2.691,4.32,1.857c0.19,0.077,0.86,0.383,0.938,0.928
		l0.056,0.387l0.388-0.037c0.18-0.018,4.394-0.498,5.595-7.57l0.013-0.077l-0.016-0.076c-0.042-0.196-0.44-1.931-1.635-2.396
		c-0.494-0.193-1.03-0.122-1.597,0.182c-0.324-1.112-0.842-2.551-1.621-3.894c0.225-0.11,0.443-0.245,0.648-0.408
		c0.79,0.774,2.507,2.194,4.373,2.057c1.241-0.091,2.31-0.845,3.173-2.239c0.193-0.256,5.228-7.019,4.992-11.134L333.327,389.514
		L333.327,389.514L333.327,389.514z M322.818,393.045c-0.114,0.652-0.712,1.202-1.765,1.645c0.272-0.949-0.022-1.857-0.038-1.902
		c-0.293-0.607-0.672-1.094-1.097-1.502c0.524-0.424,0.91-0.853,1.15-1.284C321.81,390.642,323.011,391.944,322.818,393.045
		L322.818,393.045L322.818,393.045z M310.543,389.594c0.086-0.187,2.246-4.737,7.377-3.067c0.669,0.234,2.463,1.094,2.63,2.205
		c0.094,0.624-0.339,1.305-1.275,2.025c-2.504-1.746-6.078-1.178-6.27-1.146l0.137,0.805c0.054-0.009,5.403-0.869,7.12,2.68
		c0,0.007,0.098,0.327,0.098,0.744c0,0.308-0.054,0.669-0.238,0.997c-0.24,0.427-0.683,0.728-1.294,0.908
		c-0.159-0.369-0.377-0.691-0.671-0.953c-1.98-1.769-6.267-0.257-6.447-0.192l0.276,0.769c0.039-0.015,4.009-1.414,5.628,0.032
		c0.611,0.547,0.814,1.477,0.605,2.77c-0.34-0.219-0.695-0.415-1.081-0.559c-1.837-0.683-3.917-0.312-6.203,1.075
		C310.302,397.661,308.561,394.185,310.543,389.594L310.543,389.594L310.543,389.594z M323.876,405.665
		c0.637,0.246,1.001,1.273,1.11,1.729c-0.948,5.426-3.702,6.54-4.574,6.758c-0.383-0.823-1.349-1.196-1.397-1.214l-0.152-0.05
		l-0.146,0.066c-1.799,0.818-3.487-1.46-3.504-1.483c-0.982-2.05-4.021-0.738-4.43-0.551c-0.991,0.083-1.661-0.065-1.936-0.436
		c-0.326-0.439-0.049-1.128-0.046-1.136c0.5-1.328,1.269-2.2,2.289-2.604c1.854-0.735,3.978,0.285,3.998,0.296l0.361-0.732
		c-0.1-0.049-2.46-1.191-4.654-0.325c-0.646,0.255-1.204,0.658-1.676,1.201c-0.604-0.368-0.994-0.783-1.109-1.217
		c-0.131-0.49,0.102-0.861,0.11-0.879c3.666-5.469,8.665-2.581,8.875-2.455l0.42-0.7c-0.048-0.029-4.031-2.347-7.732,0.319
		c-0.792-0.754-0.341-1.39-0.239-1.512c2.818-2.323,5.327-3.135,7.408-2.363c4.097,1.521,5.364,8.682,5.376,8.753l0.806-0.137
		c-0.012-0.069-0.088-0.485-0.238-1.093C323.21,405.634,323.575,405.548,323.876,405.665L323.876,405.665L323.876,405.665z
		 M318.944,398.709c0.173-0.831,0.213-1.562,0.111-2.184c0.591-0.174,1.074-0.438,1.423-0.807l0.013,0.045
		c0.265-0.082,0.509-0.169,0.739-0.263c0.117,0.433,0.226,1.355-0.831,1.825l0.331,0.746c0.144-0.063,0.255-0.142,0.372-0.216
		c0.253,0.275,0.818,0.894,1.063,1.162c-0.352,0.467-1.004,1.209-1.644,1.481C320.073,399.833,319.547,399.223,318.944,398.709
		L318.944,398.709z"/>
	<path fill-rule="evenodd" clip-rule="evenodd" d="M336.865,376.693c0,0.488-0.404,0.884-0.903,0.884
		c-0.498,0-0.903-0.396-0.903-0.884s0.405-0.884,0.903-0.884C336.461,375.809,336.865,376.205,336.865,376.693L336.865,376.693z"/>
	<path fill-rule="evenodd" clip-rule="evenodd" d="M353.029,377.782c0,0.464-0.392,0.84-0.876,0.84s-0.877-0.376-0.877-0.84
		s0.393-0.84,0.877-0.84S353.029,377.318,353.029,377.782L353.029,377.782z"/>
	<path fill-rule="evenodd" clip-rule="evenodd" d="M319.93,455.88c0.206-0.24,0.622-0.8,0.622-0.139
		c0,0.166-0.023,0.354-0.095,0.506c-0.253,0.531-1.004,0.239-1.172-0.159c-0.169-0.403-0.062-0.939,0.113-1.319
		c0.219-0.478,0.726-0.64,1.202-0.718c0.257-0.043,0.147-0.434-0.108-0.391c-0.929,0.152-1.528,0.692-1.664,1.644
		c-0.111,0.787,0.2,1.532,1.054,1.622c0.833,0.088,1.17-0.807,1.06-1.479c-0.051-0.313-0.197-0.524-0.531-0.538
		c-0.347-0.015-0.582,0.468-0.768,0.684C319.474,455.791,319.759,456.079,319.93,455.88L319.93,455.88L319.93,455.88z"/>
	<path fill-rule="evenodd" clip-rule="evenodd" d="M321.883,456.633c-0.116-0.558-0.182-1.188-0.028-1.745
		c0.082-0.301,0.541-0.579,0.688-0.152c0.121,0.352-0.177,0.928-0.559,0.967c-0.254,0.026-0.265,0.415,0,0.405
		c0.446-0.016,0.866,0.162,1.167,0.49c0.177,0.193,0.463-0.095,0.286-0.287c-0.368-0.4-0.908-0.627-1.453-0.608
		c0,0.135,0,0.271,0,0.405c1.042-0.106,1.447-2.06,0.165-1.981c-1.076,0.065-0.795,1.953-0.656,2.615
		C321.545,456.997,321.937,456.889,321.883,456.633L321.883,456.633L321.883,456.633z"/>
	<path fill-rule="evenodd" clip-rule="evenodd" d="M324.084,454.02c-1.092,0.342-0.86,2.825,0.397,2.58
		c1.232-0.24,0.911-2.805-0.376-2.56c-0.256,0.049-0.147,0.439,0.108,0.392c0.712-0.137,0.927,1.706,0.146,1.776
		c-0.694,0.063-0.768-1.61-0.167-1.798C324.44,454.333,324.334,453.941,324.084,454.02L324.084,454.02L324.084,454.02z"/>
	<path fill-rule="evenodd" clip-rule="evenodd" d="M327.049,456.058c-0.378,0.792-0.973-0.165-1.076-0.576
		c-0.127-0.502,0.16-1.223,0.774-1.134c0.256,0.036,0.366-0.354,0.108-0.392c-1.011-0.146-1.464,0.881-1.247,1.739
		c0.196,0.777,1.295,1.607,1.79,0.566C327.51,456.027,327.161,455.821,327.049,456.058L327.049,456.058L327.049,456.058z"/>
	<path fill-rule="evenodd" clip-rule="evenodd" d="M326.078,455.753c0.224-0.18,0.495-0.247,0.757-0.349
		c0.239-0.094,0.136-0.486-0.108-0.391c-0.335,0.131-0.649,0.225-0.936,0.452C325.587,455.629,325.876,455.914,326.078,455.753
		L326.078,455.753L326.078,455.753z"/>
	<path fill-rule="evenodd" clip-rule="evenodd" d="M327.927,456.594c0.096-0.513,0.131-1.032,0.232-1.543
		c-0.099,0.04-0.198,0.08-0.297,0.12c0.513,0.376,1.264,2.097,1.852,0.858c0.366-0.771-0.144-1.831-0.824-2.243
		c-0.224-0.137-0.427,0.214-0.204,0.349c0.527,0.32,0.826,1.022,0.696,1.624c-0.131,0.612-0.559-0.136-0.691-0.319
		c-0.177-0.245-0.383-0.44-0.624-0.617c-0.103-0.075-0.273,0-0.298,0.12c-0.101,0.511-0.137,1.031-0.232,1.542
		C327.488,456.741,327.878,456.85,327.927,456.594L327.927,456.594L327.927,456.594z"/>
	<path fill-rule="evenodd" clip-rule="evenodd" d="M331.434,456.614c0.089-0.413,0.081-0.831,0.148-1.247
		c-0.112,0.029-0.226,0.06-0.339,0.09c0.425,0.387,0.82,0.8,1.205,1.226c0.085,0.094,0.26,0.072,0.317-0.042
		c0.449-0.868,0.169-1.905-0.231-2.739c-0.112-0.235-0.462-0.03-0.35,0.204c0.332,0.691,0.606,1.605,0.232,2.331
		c0.105-0.013,0.212-0.026,0.318-0.041c-0.385-0.425-0.781-0.839-1.205-1.226c-0.102-0.093-0.313-0.07-0.339,0.089
		c-0.066,0.415-0.061,0.838-0.148,1.247C330.989,456.762,331.379,456.87,331.434,456.614L331.434,456.614L331.434,456.614z"/>
	<path fill-rule="evenodd" clip-rule="evenodd" d="M334.668,455.875c0.116-0.467,0.606-0.503,0.947-0.234
		c0.586,0.46-0.185,0.955-0.619,1.059c-0.732,0.174-1.263-0.477-1.273-1.156c-0.012-0.697,0.727-1.158,1.342-1.188
		c0.26-0.013,0.262-0.418,0-0.405c-0.996,0.049-1.862,0.84-1.728,1.882c0.144,1.106,1.23,1.505,2.172,1.132
		c0.714-0.283,0.964-1.161,0.322-1.665c-0.559-0.438-1.378-0.238-1.554,0.468C334.215,456.02,334.605,456.127,334.668,455.875
		L334.668,455.875L334.668,455.875z"/>
	<path fill-rule="evenodd" clip-rule="evenodd" d="M327.384,452.57c-0.076-0.349-0.112-0.7-0.127-1.058
		c-0.01-0.252-0.039-1.36,0.445-0.898c0.53,0.504,0.596,1.452,0.881,2.097c0.105,0.238,0.454,0.031,0.349-0.204
		c-0.244-0.554-0.35-1.155-0.617-1.701c-0.159-0.327-0.52-0.837-0.948-0.767c-0.443,0.071-0.474,0.6-0.505,0.958
		c-0.049,0.558,0.014,1.137,0.131,1.682C327.048,452.935,327.438,452.825,327.384,452.57L327.384,452.57L327.384,452.57z"/>
	<path fill-rule="evenodd" clip-rule="evenodd" d="M326.426,451.78c0.238,0.005,0.475,0.028,0.713,0.048
		c0.313,0.025,0.627-0.022,0.938,0.021c0.256,0.035,0.365-0.355,0.107-0.391c-0.254-0.035-0.5-0.028-0.756-0.023
		c-0.334,0.006-0.668-0.052-1.002-0.06C326.164,451.369,326.165,451.774,326.426,451.78L326.426,451.78L326.426,451.78z"/>
	<path fill-rule="evenodd" clip-rule="evenodd" d="M329.934,452.462c-0.258-0.509-0.332-1.09-0.457-1.642
		c-0.059-0.254-0.448-0.146-0.392,0.108c0.135,0.589,0.223,1.193,0.499,1.737C329.702,452.899,330.051,452.694,329.934,452.462
		L329.934,452.462L329.934,452.462z"/>
	<path fill-rule="evenodd" clip-rule="evenodd" d="M331.204,452.567c-0.323-0.589-0.374-1.278-0.577-1.91
		c-0.08-0.248-0.471-0.142-0.391,0.108c0.215,0.668,0.275,1.383,0.619,2.006C330.981,453,331.33,452.796,331.204,452.567
		L331.204,452.567L331.204,452.567z"/>
	<path fill-rule="evenodd" clip-rule="evenodd" d="M328.741,450.793c1.009,0.068,2.054,0.074,3.066,0.075
		c0.262,0,0.262-0.405,0-0.405c-1.013-0.001-2.058-0.007-3.066-0.075C328.48,450.37,328.482,450.775,328.741,450.793
		L328.741,450.793L328.741,450.793z"/>
	<path fill-rule="evenodd" clip-rule="evenodd" d="M330.013,449.913c0.071,0.23,0.159,0.448,0.273,0.66
		c0.124,0.23,0.474,0.025,0.35-0.204c-0.098-0.182-0.172-0.367-0.232-0.564C330.327,449.556,329.936,449.662,330.013,449.913
		L330.013,449.913L330.013,449.913z"/>
	<path fill-rule="evenodd" clip-rule="evenodd" d="M328.869,449.992c0.004,0.18,0.045,0.313,0.116,0.477
		c0.104,0.239,0.453,0.033,0.35-0.204c-0.02-0.091-0.04-0.181-0.061-0.272C329.268,449.731,328.862,449.731,328.869,449.992
		L328.869,449.992L328.869,449.992z"/>
	<path fill-rule="evenodd" clip-rule="evenodd" d="M324.507,453.097c-0.3-0.841-0.245-1.829-0.358-2.709
		c-0.032-0.256-0.438-0.259-0.405,0c0.118,0.918,0.06,1.938,0.373,2.817C324.203,453.449,324.595,453.344,324.507,453.097
		L324.507,453.097L324.507,453.097z"/>
	<path fill-rule="evenodd" clip-rule="evenodd" d="M325.288,451.863c-0.085-0.499,0.037-1.007,0.208-1.475
		c0.09-0.246-0.302-0.352-0.391-0.108c-0.198,0.543-0.307,1.117-0.208,1.691C324.941,452.229,325.332,452.119,325.288,451.863
		L325.288,451.863L325.288,451.863z"/>
	<path fill-rule="evenodd" clip-rule="evenodd" d="M326.502,452.91c-0.366-0.774-0.498-1.628-0.761-2.438
		c-0.08-0.247-0.472-0.141-0.391,0.108c0.274,0.845,0.419,1.727,0.802,2.534C326.265,453.351,326.613,453.145,326.502,452.91
		L326.502,452.91L326.502,452.91z"/>
	<path fill-rule="evenodd" clip-rule="evenodd" d="M323.768,450.444c0.431,0.461,0.845,1.028,1.185,1.558
		c0.141,0.22,0.491,0.017,0.35-0.203c-0.363-0.566-0.788-1.149-1.247-1.642C323.876,449.966,323.59,450.254,323.768,450.444
		L323.768,450.444L323.768,450.444z"/>
	<path fill-rule="evenodd" clip-rule="evenodd" d="M330.229,454.744c0.156,0.626,0.12,1.192-0.191,1.752
		c-0.128,0.228,0.223,0.432,0.349,0.204c0.174-0.309,0.289-0.552,0.334-0.907c0.045-0.366-0.012-0.8-0.101-1.157
		C330.556,454.383,330.165,454.491,330.229,454.744L330.229,454.744L330.229,454.744z"/>
</g>
</svg>
