<?xml version="1.0" encoding="utf-8"?>

<!DOCTYPE svg PUBLIC "-//W3C//DTD SVG 1.1//EN" "http://www.w3.org/Graphics/SVG/1.1/DTD/svg11.dtd">
<svg version="1.1" id="Layer_1" xmlns="http://www.w3.org/2000/svg" xmlns:xlink="http://www.w3.org/1999/xlink" x="0px" y="0px"
	 viewBox="0 0 1898.864 1662.942" enable-background="new 0 0 1898.864 1662.942" xml:space="preserve">
<g>
	<path d="M1431.102,1631.386c-139.293,0-278.586,0-417.879-0.001c-8.095,0-8.162,0.003-9.001-8.25
		c-0.336-3.301-0.42-6.639-0.42-9.961c0.001-15.382-1.829-30.486-7.331-44.934c-4.634-12.168-5.85-24.247-0.656-36.561
		c1.244-2.949,1.282-6.195,0.324-9.24c-4.047-12.874-0.29-24.32,6.373-35.186c4.212-6.868,7.527-14.151,10.714-21.514
		c1.99-4.596,2.434-9.191,1.67-14.28c-2.614-17.405-4.733-34.85-4.963-52.531c-0.237-18.211-1.958-36.27-8.129-53.716
		c-4.448-12.573-2.448-25.989-3.762-38.985c-1.608-15.909,3.9-29.046,14.231-40.776c9.052-10.278,19.397-19.339,27.903-30.13
		c2.365-3.001,3.831-6.177,4.923-9.817c6.504-21.679,7.549-44.29,11.64-66.363c7.02-37.875,13.755-75.846,26.077-112.523
		c4.076-12.132,5.365-24.752,5.647-37.573c0.429-19.553,1.818-39.087,2.162-58.64c0.224-12.76-3.014-25.266-6.063-37.506
		c-2.044-8.206-8.501-14.841-13.407-21.896c-9.827-14.133-19.966-28.05-29.681-42.258c-2.698-3.946-5.898-5.793-10.524-6.285
		c-8.702-0.925-17.506-1.342-25.229,3.132c-23.509,13.617-49.38,17.904-75.831,20.341c-6.417,0.591-12.72,1.578-19.262,0.777
		c-5.858-0.717-10.965,2.421-15.933,5.188c-14.355,7.995-28.702,16.007-43.002,24.1c-9.245,5.233-18.929,9.332-29.215,12.02
		c-22.281,5.823-42.098,16.922-60.806,29.824c-17.052,11.76-34.568,22.859-50.795,35.869c-11.33,9.083-24.779,14.906-38.278,20.232
		c-21.484,8.475-43.425,15.662-65.373,22.816c-2.772,0.903-5.704,1.891-8.555,1.871c-10.171-0.069-18.984,3.818-27.759,8.349
		c-32.519,16.792-65.338,32.949-100.101,44.714c-12.066,4.084-24.484,6.822-37.057,8.811c-2.099,0.332-4.316,0.359-6.428,0.105
		c-13.57-1.627-27.109-3.534-40.696-5.007c-6.383-0.692-11.494-3.536-16.107-7.647c-5.515-4.915-9.806-3.752-12.33,3.436
		c-1.034,2.944-1.641,6.09-3.03,8.849c-4.28,8.505-10.9,10.104-18.044,3.853c-3.934-3.442-7.966-4.485-12.853-4.18
		c-7.222,0.451-14.465,0.583-21.682,1.093c-7.723,0.546-14.506,3.401-19.452,9.551c-4.294,5.339-9.525,9.103-15.938,11.522
		c-5.13,1.936-10,4.517-13.93,8.502c-1.698,1.722-3.663,2.492-5.806,1.254c-3.326-1.921-5.764-0.494-8.541,1.365
		c-17.226,11.529-36.169,19.634-55.934,25.268c-11.221,3.199-22.768,5.123-33.747,9.485c-6.455,2.565-13.534,1.629-20.254-0.148
		c-6.394-1.691-8.53-6.988-10.072-12.616c-2.058-7.509-2.006-7.389-9.917-6.593c-4.072,0.41-8.206,0.444-12.303,0.325
		c-9.89-0.289-17.709-7.636-18.883-17.516c-0.931-7.829-1.583-8.155-9.254-8.609c-15.012-0.888-22.743-5.72-21.098-23.819
		c0.248-2.726,0.085-5.676,1.101-8.108c2.466-5.9-0.383-9.445-4.354-13.193c-9.526-8.992-10.957-20.373-3.578-31.153
		c6.382-9.323,14.516-16.896,25.198-21.281c12.565-5.157,22.829-14.266,34.9-20.321c4.02-2.016,3.711-4.39-0.525-6.729
		c-7.873-4.347-15.931-8.357-23.89-12.551c-10.481-5.523-17.878-13.646-21.723-25.036c-2.192-6.494-4.528-12.918-5.802-19.673
		c-0.98-5.198-0.235-10.189,2.204-14.813c3.24-6.143,9.35-6.798,13.704-1.496c2.229,2.714,4.379,5.56,6.109,8.605
		c3.922,6.904,9.718,11.491,16.623,15.174c17.083,9.113,34.705,16.096,54.433,16.689c6.766,0.203,12.696,3.799,18.616,6.79
		c11.349,5.734,22.585,11.691,33.857,17.577c2.966,1.549,5.784,3.538,8.911,0.078c1.051-1.163,2.938-1.169,4.473-0.713
		c5.591,1.66,10.873,0.234,16.079-1.561c22.237-7.665,45.21-12.226,68.313-16.207c4.927-0.849,8.961-1.518,8.511-8.283
		c-0.291-4.374,3.111-7.048,7.509-7.612c6.336-0.812,12.035-2.776,17.128-6.898c3.438-2.782,8.004-2.921,12.346-3.02
		c5.198-0.118,9.855-1.109,13.899-5.018c4.936-4.772,11.023-3.754,16.417-0.909c3.765,1.986,6.794,1.833,10.439,0.136
		c44.517-20.728,88.719-41.995,130.892-67.355c20.925-12.583,42.853-23.513,64.459-34.94c4.902-2.593,8.852-6.425,13.552-9.134
		c7.665-4.418,15.963-7.451,24.701-9.004c6.546-1.164,12.355-3.806,17.287-8.168c6.066-5.366,13.334-7.553,21.076-7.333
		c9.755,0.277,18.631-1.564,26.521-7.475c2.268-1.699,4.934-2.306,7.731-2.39c2.346-0.07,4.707-0.34,7.036-0.168
		c7.607,0.56,11.66-2.696,15.813-9.54c11.625-19.159,26.617-35.159,49.165-41.991c6.802-2.061,13.565-3.625,20.735-3.192
		c16.959,1.024,32.584-1.97,47.201-11.847c10.001-6.758,18.518-13.95,24.254-24.701c6.246-11.707,14.593-21.694,26.654-28.126
		c6.755-3.603,12.497-8.648,18.273-13.678c30.081-26.2,59.585-53.08,91.591-77.013c11.942-8.93,23.847-18.354,37.387-24.099
		c11.176-4.742,21.537-11.052,32.828-15.294c3.821-1.436,6.02-2.833,6.351-6.981c0.231-2.902,0.906-5.773,2.295-8.442
		c2.047-3.932,4.69-6.771,9.609-6.111c3.168,0.425,5.144-0.732,6.114-3.953c1.584-5.26,5.409-7.389,10.774-7.003
		c0.584,0.042,1.175-0.015,1.76,0.014c8.579,0.425,16.468,2.492,25.55-2.433c8.066-4.375,18.842-4.379,28.408-6.399
		c21.482-4.536,42.37-11.147,63.277-17.688c13.316-4.167,26.845-6.985,40.774-7.745c3.205-0.175,5.528-0.381,5.652-4.686
		c1.28-44.383,5.711-88.622,6.152-133.047c0.179-17.983-0.868-36.02,2.01-53.895c2.431-15.096,5.561-29.943,12.936-43.658
		c2.647-4.921,3.823-10.65,5.533-16.055c10.125-32.011,23.97-62.418,39.752-91.975c5.372-10.061,11.868-19.24,20.865-26.596
		c4.879-3.989,7.726-9.834,10.623-15.366c3.191-6.094,8.061-9.877,14.321-12.295c12.855-4.966,24.874-11.435,35.376-20.462
		c7.964-6.846,16.31-10.719,26.683-4.955c1.94,1.078,4.553,1.266,6.865,1.301c12.279,0.189,22.675,5.051,32.357,12.203
		c22.039,16.281,43.797,32.804,62.664,52.913c11.496,12.252,24.156,23.374,34.163,37.049c8.744,11.949,15.558,24.833,20.782,38.629
		c2.588,6.835,3.662,13.95,4.462,21.174c3.099,27.997,8.12,55.763,10.391,83.855c2.365,29.246,4.706,58.504,4.895,87.875
		c0.156,24.264,0.898,48.512,2.572,72.717c1.191,17.233-1.526,34.373-0.825,51.602c0.185,4.543,1.456,7.084,5.482,9.136
		c9.583,4.884,18.977,10.145,28.364,15.404c2.999,1.68,5.713,2.432,8.599-0.028c2.423-2.065,5.064-1.787,7.669-0.426
		c4.678,2.443,9.414,4.798,13.957,7.478c20.682,12.202,43.039,21.565,61.782,37.084c5.829,4.826,11.135,10.452,18.209,13.749
		c2.519,1.174,4.882,2.175,7.734,2.306c6.177,0.285,9.623,3.258,9.968,9.275c0.227,3.953,1.924,6.497,4.699,8.921
		c7.3,6.374,13.059,13.971,17.54,22.574c23.772,45.635,42.335,93.279,55.484,143.04c2.186,8.271,1.401,16.701,2.022,25.045
		c2.658,35.731,2.542,71.523,2.429,107.336c-0.108,34.226,1.212,68.45,0.108,102.688c-0.257,7.983,0.46,16.047,1.34,24.006
		c1.89,17.092,0.554,33.98-2.317,50.824c-0.823,4.831-1.336,9.684-1.323,14.593c0.034,12.521-0.155,25.019-1.312,37.516
		c-1.187,12.817,1.121,25.393,4.303,37.735c3.599,13.957,4.925,27.992,4.308,42.415c-0.878,20.512-1.432,41.115-1.006,61.582
		c0.467,22.434,0.272,44.964,2.283,67.364c3.548,39.512,1.868,78.977-0.929,118.423c-0.683,9.63-0.72,19.152,0.93,28.647
		c1.951,11.226,2.361,22.557,2.551,33.906c0.082,4.902-0.34,9.733-1.753,14.499c-1.701,5.737-1.01,11.654-0.593,17.501
		c1.31,18.338,3.439,36.615,3.74,55.027c0.146,8.926-1.579,17.471-4.026,25.981c-0.926,3.221-2.512,4.59-5.807,4.224
		c-1.546-0.172-3.127-0.027-4.692-0.027C1709.296,1631.386,1570.199,1631.386,1431.102,1631.386z"/>
</g>
</svg>
